<?xml version="1.0" encoding="UTF-8"?>
<svg version="1.1" xmlns="http://www.w3.org/2000/svg" width="308" height="308">
<path d="M0 0 C25.799083 21.63909742 43.85944899 48.91124097 52.75634766 81.47314453 C52.97935547 82.25963379 53.20236328 83.04612305 53.43212891 83.85644531 C63.89166334 122.285609 55.58114559 164.18443803 36.71337891 198.44970703 C16.22071311 234.18085795 -18.7867734 259.69232968 -58.24365234 270.47314453 C-59.42338623 270.80765625 -59.42338623 270.80765625 -60.62695312 271.14892578 C-99.05611682 281.60846021 -140.95494584 273.29794246 -175.22021484 254.43017578 C-210.95136576 233.93750999 -236.46283749 198.93002347 -247.24365234 159.47314453 C-247.46666016 158.68665527 -247.68966797 157.90016602 -247.91943359 157.08984375 C-258.37896802 118.66068006 -250.06845028 76.76185103 -231.20068359 42.49658203 C-210.7080178 6.76543111 -175.70053129 -18.74604062 -136.24365234 -29.52685547 C-135.45716309 -29.74986328 -134.67067383 -29.97287109 -133.86035156 -30.20263672 C-88.30652998 -42.60133915 -36.08143727 -29.63522167 0 0 Z " fill="#161D2F" transform="translate(251.24365234375,33.52685546875)"/>
<path d="M0 0 C16.396875 -0.0928125 16.396875 -0.0928125 33.125 -0.1875 C38.28987061 -0.22846802 38.28987061 -0.22846802 43.55908203 -0.27026367 C46.29198862 -0.27902653 49.02489912 -0.28667094 51.7578125 -0.29296875 C52.46275848 -0.30080887 53.16770447 -0.30864899 53.89401245 -0.31672668 C55.98570499 -0.33881358 58.07666467 -0.34171389 60.16845703 -0.34057617 C61.93384323 -0.35056892 61.93384323 -0.35056892 63.7348938 -0.36076355 C70.15374059 0.3484587 74.33307022 3.8886571 79 8 C79.26482178 7.38590271 79.52964355 6.77180542 79.80249023 6.13909912 C81.87870699 2.43037492 85.08837978 1.14032155 89 0 C94.1516344 -0.53246229 99.26800089 -0.467855 104.4375 -0.390625 C105.74654297 -0.38659668 107.05558594 -0.38256836 108.40429688 -0.37841797 C113.2696749 -0.35757279 118.1348523 -0.30172767 123 -0.25 C133.89 -0.1675 144.78 -0.085 156 0 C156 32.67 156 65.34 156 99 C123.4375 99.3125 123.4375 99.3125 113.18920898 99.38793945 C110.49982314 99.42023324 107.81044996 99.4536075 105.12109375 99.48828125 C104.08372826 99.4926545 104.08372826 99.4926545 103.02540588 99.49711609 C94.0389693 99.53998802 87.6247443 99.91683713 80 105 C75.20639216 105.77734181 72.80675948 103.73093615 69 101 C65.66950968 99.88983656 63.11054334 99.84147391 59.60083008 99.79467773 C58.94626422 99.78464501 58.29169836 99.77461229 57.61729717 99.76427555 C55.50141103 99.73292833 53.38550613 99.70813511 51.26953125 99.68359375 C49.97511108 99.66494263 48.68069092 99.6462915 47.3470459 99.6270752 C42.50226805 99.55867133 37.65737558 99.49859049 32.8125 99.4375 C21.984375 99.293125 11.15625 99.14875 0 99 C0 66.33 0 33.66 0 0 Z " fill="#172130" transform="translate(68,84)"/>
<path d="M0 0 C14.6334375 -0.0928125 14.6334375 -0.0928125 29.5625 -0.1875 C32.63119385 -0.21481201 35.6998877 -0.24212402 38.86157227 -0.27026367 C41.30484626 -0.27902885 43.74812465 -0.28667271 46.19140625 -0.29296875 C47.45110229 -0.30831665 48.71079834 -0.32366455 50.00866699 -0.33947754 C61.7374027 -0.34297066 61.7374027 -0.34297066 67 3 C70.32716851 7.21056521 70.41312938 11.11590554 70.34057617 16.27856445 C70.34123329 17.50860954 70.34123329 17.50860954 70.34190369 18.76350403 C70.33982003 21.46367518 70.31650916 24.16321907 70.29296875 26.86328125 C70.28737129 28.73943238 70.2831019 30.61558791 70.28010559 32.491745 C70.26866866 37.42213108 70.23921133 42.3522507 70.20599365 47.28253174 C70.17526798 52.31657304 70.16159491 57.35065752 70.14648438 62.38476562 C70.11434057 72.25662728 70.06315808 82.12829146 70 92 C68.98066879 91.67657623 67.96133759 91.35315247 66.91111755 91.01992798 C63.37078705 90.01265114 60.1159683 89.7257461 56.42211914 89.68115234 C55.14389282 89.66109131 53.8656665 89.64103027 52.54870605 89.62036133 C51.21085832 89.60863337 49.87300835 89.59715651 48.53515625 89.5859375 C47.30373901 89.56829346 46.07232178 89.55064941 44.80358887 89.5324707 C40.22335639 89.46961775 35.64290923 89.42328348 31.0625 89.375 C20.811875 89.25125 10.56125 89.1275 0 89 C0 59.63 0 30.26 0 0 Z " fill="#131A2B" transform="translate(73,89)"/>
<path d="M0 0 C16.396875 -0.0928125 16.396875 -0.0928125 33.125 -0.1875 C38.28987061 -0.22846802 38.28987061 -0.22846802 43.55908203 -0.27026367 C46.29198862 -0.27902653 49.02489912 -0.28667094 51.7578125 -0.29296875 C52.46275848 -0.30080887 53.16770447 -0.30864899 53.89401245 -0.31672668 C55.98570499 -0.33881358 58.07666467 -0.34171389 60.16845703 -0.34057617 C61.93384323 -0.35056892 61.93384323 -0.35056892 63.7348938 -0.36076355 C70.15374059 0.3484587 74.33307022 3.8886571 79 8 C79.26482178 7.38590271 79.52964355 6.77180542 79.80249023 6.13909912 C81.87870699 2.43037492 85.08837978 1.14032155 89 0 C94.1516344 -0.53246229 99.26800089 -0.467855 104.4375 -0.390625 C105.74654297 -0.38659668 107.05558594 -0.38256836 108.40429688 -0.37841797 C113.2696749 -0.35757279 118.1348523 -0.30172767 123 -0.25 C133.89 -0.1675 144.78 -0.085 156 0 C156 32.67 156 65.34 156 99 C123.4375 99.3125 123.4375 99.3125 113.18920898 99.38793945 C110.49982314 99.42023324 107.81044996 99.4536075 105.12109375 99.48828125 C104.08372826 99.4926545 104.08372826 99.4926545 103.02540588 99.49711609 C94.0389693 99.53998802 87.6247443 99.91683713 80 105 C75.20639216 105.77734181 72.80675948 103.73093615 69 101 C65.66950968 99.88983656 63.11054334 99.84147391 59.60083008 99.79467773 C58.94626422 99.78464501 58.29169836 99.77461229 57.61729717 99.76427555 C55.50141103 99.73292833 53.38550613 99.70813511 51.26953125 99.68359375 C49.97511108 99.66494263 48.68069092 99.6462915 47.3470459 99.6270752 C42.50226805 99.55867133 37.65737558 99.49859049 32.8125 99.4375 C21.984375 99.293125 11.15625 99.14875 0 99 C0 66.33 0 33.66 0 0 Z M5 5 C5 34.37 5 63.74 5 94 C25.41797301 94.24943331 25.41797301 94.24943331 45.83618164 94.47802734 C48.40251696 94.51324428 50.96884273 94.54916674 53.53515625 94.5859375 C54.52412148 94.5942308 54.52412148 94.5942308 55.5330658 94.60269165 C57.49618236 94.61990089 59.45916888 94.65034496 61.42211914 94.68115234 C63.07758507 94.70113785 63.07758507 94.70113785 64.76649475 94.7215271 C68.43559644 95.03751403 71.49654905 95.88838947 75 97 C75.06951846 86.13415503 75.12282072 75.26836299 75.15543652 64.40234089 C75.17109068 59.35677038 75.19232451 54.31135206 75.22631836 49.26586914 C75.25892053 44.39645581 75.27685489 39.52718884 75.28463173 34.65767479 C75.29017368 32.80012902 75.30099576 30.94259124 75.31719017 29.0851078 C75.33897586 26.48275075 75.34196645 23.88099807 75.34057617 21.27856445 C75.351362 20.5110788 75.36214783 19.74359314 75.3732605 18.95285034 C75.347261 14.45360405 74.81184351 11.55841624 72 8 C65.56547634 3.91258411 58.60006408 4.61676555 51.19140625 4.70703125 C50.01896362 4.71005249 48.846521 4.71307373 47.6385498 4.71618652 C43.27977635 4.73182351 38.92112887 4.7737073 34.5625 4.8125 C19.9290625 4.9053125 19.9290625 4.9053125 5 5 Z M84 8 C80.31398461 13.29951775 79.4238766 17.04215093 79.54589844 23.41381836 C79.54531433 24.2243869 79.54473022 25.03495544 79.54412842 25.87008667 C79.54689667 28.52712073 79.57792768 31.18300771 79.609375 33.83984375 C79.6168419 35.69071337 79.62253271 37.54159094 79.62652588 39.39247131 C79.64174689 44.24730527 79.68099803 49.10165519 79.7253418 53.95629883 C79.76637094 58.91676283 79.78455318 63.87730559 79.8046875 68.83789062 C79.84749589 78.55880559 79.91570417 88.27936243 80 98 C81.18198975 97.51391769 82.36397949 97.02783539 83.58178711 96.52702332 C87.37193255 95.11101538 90.61799269 94.60868959 94.69140625 94.56762695 C95.96951172 94.54768677 97.24761719 94.52774658 98.56445312 94.50720215 C99.88380859 94.50095825 101.20316406 94.49471436 102.5625 94.48828125 C103.79291016 94.47164429 105.02332031 94.45500732 106.29101562 94.43786621 C110.86050553 94.38029717 115.43028437 94.3478718 120 94.3125 C130.23 94.209375 140.46 94.10625 151 94 C151 64.63 151 35.26 151 5 C141.244375 4.938125 131.48875 4.87625 121.4375 4.8125 C118.36880615 4.78518799 115.3001123 4.75787598 112.13842773 4.72973633 C109.69515374 4.72097115 107.25187535 4.71332729 104.80859375 4.70703125 C103.54889771 4.69168335 102.28920166 4.67633545 100.99133301 4.66052246 C92.01727463 4.54501479 92.01727463 4.54501479 84 8 Z " fill="#F0F1F2" transform="translate(68,84)"/>
<path d="M0 0 C0.6919043 0.1659668 1.38380859 0.33193359 2.09667969 0.50292969 C20.50475723 5.030395 38.23825721 14.20595593 53 26 C52.34 26.33 51.68 26.66 51 27 C48.39599243 25.82015218 45.89706908 24.58655929 43.375 23.25 C33.2279351 17.54285168 33.2279351 17.54285168 22 16 C24.46025059 20.51045941 27.60282037 24.18504423 31 28 C29.68 28.33 28.36 28.66 27 29 C24.03 25.37 21.06 21.74 18 18 C16.92621094 18.28875 15.85242188 18.5775 14.74609375 18.875 C13.31001239 19.25044611 11.87380779 19.62542105 10.4375 20 C9.38079102 20.28617188 9.38079102 20.28617188 8.30273438 20.578125 C3.72939791 21.75834086 -0.27776365 22.19856973 -5 22 C-4.505 25.465 -4.505 25.465 -4 29 C-5.485 28.505 -5.485 28.505 -7 28 C-7.33 26.35 -7.66 24.7 -8 23 C-8.66 23.33 -9.32 23.66 -10 24 C-19.1679125 25.65759132 -28.72558535 25.09092563 -38 25 C-38 26.32 -38 27.64 -38 29 C-38.99 29 -39.98 29 -41 29 C-41 27.35 -41 25.7 -41 24 C-43.64 24 -46.28 24 -49 24 C-49 23.67 -49 23.34 -49 23 C-46.03 23 -43.06 23 -40 23 C-40 16.4 -40 9.8 -40 3 C-43.09375 3.28875 -46.1875 3.5775 -49.375 3.875 C-50.83558838 4.00430908 -50.83558838 4.00430908 -52.32568359 4.13623047 C-53.09219238 4.21244629 -53.85870117 4.28866211 -54.6484375 4.3671875 C-55.82672119 4.47716064 -55.82672119 4.47716064 -57.02880859 4.58935547 C-59.22420226 4.85884591 -59.22420226 4.85884591 -61 7 C-61.83917969 6.83757812 -62.67835937 6.67515625 -63.54296875 6.5078125 C-68.14034056 5.83249235 -71.8415734 6.79222548 -76.3125 7.875 C-77.13556641 8.06191406 -77.95863281 8.24882812 -78.80664062 8.44140625 C-82.72072016 9.06777985 -82.72072016 9.06777985 -86 11 C-88.33333333 11 -90.66666667 11 -93 11 C-95.31036915 11.42854995 -95.31036915 11.42854995 -97 12 C-96.74734375 12.86882812 -96.4946875 13.73765625 -96.234375 14.6328125 C-95.9195464 19.15585004 -97.33510803 20.49262536 -100.25 23.875 C-101.05953125 24.84179688 -101.8690625 25.80859375 -102.703125 26.8046875 C-105 29 -105 29 -108 29 C-106.66310929 24.58826067 -104.2814302 21.79774616 -101.2421875 18.453125 C-99.89170314 17.19193 -99.89170314 17.19193 -100 16 C-104.59365432 15.73582684 -107.45791815 16.36360562 -111.546875 18.44140625 C-112.55621094 18.94220703 -113.56554687 19.44300781 -114.60546875 19.95898438 C-115.64316406 20.48814453 -116.68085937 21.01730469 -117.75 21.5625 C-119.8245865 22.61248962 -121.9025516 23.65583941 -123.984375 24.69140625 C-124.89928711 25.15748291 -125.81419922 25.62355957 -126.75683594 26.10375977 C-127.49708008 26.39951904 -128.23732422 26.69527832 -129 27 C-129.66 26.67 -130.32 26.34 -131 26 C-110.29392218 10.60984521 -87.56755984 0.7684612 -62 -3 C-60.38146118 -3.25583862 -60.38146118 -3.25583862 -58.73022461 -3.5168457 C-39.48122055 -6.01005724 -18.74768428 -4.76907745 0 0 Z " fill="#EFF0F0" transform="translate(185,205)"/>
<path d="M0 0 C0.33 0.66 0.66 1.32 1 2 C21.13 2 41.26 2 62 2 C62 25 62 25 58 30 C58.62371701 33.7695146 58.62371701 33.7695146 60 37 C56 37 56 37 54.25 35.5 C53.8375 35.005 53.425 34.51 53 34 C52.67 34.99 52.34 35.98 52 37 C50.68 37 49.36 37 48 37 C48.350625 36.46375 48.70125 35.9275 49.0625 35.375 C50.29689651 32.24786217 49.69035322 30.24466015 49 27 C49 26.01 49 25.02 49 24 C49.66 23.67 50.32 23.34 51 23 C47.37 23 43.74 23 40 23 C42.31 23.66 44.62 24.32 47 25 C47.04254356 26.99954746 47.04080783 29.00041636 47 31 C46 32 46 32 42.4375 32.0625 C41.303125 32.041875 40.16875 32.02125 39 32 C39 32.66 39 33.32 39 34 C41.97 33.505 41.97 33.505 45 33 C45.33 33.99 45.66 34.98 46 36 C43.20129973 37.39935013 41.09501208 37.25265405 38 37 C36.1875 35.9375 36.1875 35.9375 35 34 C34.3125 30.3125 34.3125 30.3125 34 27 C33.67 30.3 33.34 33.6 33 37 C31.68 37 30.36 37 29 37 C28.505 33.535 28.505 33.535 28 30 C27.525625 30.969375 27.05125 31.93875 26.5625 32.9375 C25 36 25 36 24 37 C22.31391034 37.07205511 20.62499341 37.08386068 18.9375 37.0625 C18.01839844 37.05347656 17.09929687 37.04445312 16.15234375 37.03515625 C15.44207031 37.02355469 14.73179687 37.01195312 14 37 C13.505 34.525 13.505 34.525 13 32 C13 32.99 13 33.98 13 35 C13 35.66 13 36.32 13 37 C11.68 37 10.36 37 9 37 C8.67 36.34 8.34 35.68 8 35 C5.36 35 2.72 35 0 35 C-0.33 35.66 -0.66 36.32 -1 37 C-1.99 37 -2.98 37 -4 37 C-3.44894091 33.0507432 -2.61064629 29.65079826 -1 26 C-1.66 26 -2.32 26 -3 26 C-3.33 27.65 -3.66 29.3 -4 31 C-4.33 31 -4.66 31 -5 31 C-5.14541967 26.77119589 -5.23411527 22.54303587 -5.3125 18.3125 C-5.35439453 17.11431641 -5.39628906 15.91613281 -5.43945312 14.68164062 C-5.5608921 5.96232198 -5.5608921 5.96232198 -3.86474609 3.05224609 C-2.48046875 1.66796875 -2.48046875 1.66796875 0 0 Z " fill="#141C2E" transform="translate(155,90)"/>
<path d="M0 0 C1.65 0 3.3 0 5 0 C5 32.01 5 64.02 5 97 C29.75 97 54.5 97 80 97 C80.66 98.32 81.32 99.64 82 101 C84.65955769 101.88651923 86.55163183 102.25102319 89.3125 102.375 C90.42044922 102.44847656 90.42044922 102.44847656 91.55078125 102.5234375 C94.29166383 102.15695044 94.29166383 102.15695044 96.6802063 99.50276184 C100.18826464 96.50741253 102.93522277 96.39339413 107.56591797 96.43237305 C108.3100551 96.43177037 109.05419224 96.4311677 109.82087898 96.43054676 C112.2120953 96.43425704 114.60132337 96.4722226 116.9921875 96.51171875 C118.47533226 96.51907713 119.95849002 96.52417374 121.44165039 96.52697754 C126.91963258 96.5531116 132.39733617 96.62291839 137.875 96.6875 C150.12625 96.790625 162.3775 96.89375 175 97 C175 64.99 175 32.98 175 0 C176.65 0 178.3 0 180 0 C180 33.99 180 67.98 180 103 C140.8125 103.25 140.8125 103.25 128.45239258 103.29785156 C124.78673934 103.33108372 124.78673934 103.33108372 121.12113953 103.36956787 C119.49224142 103.3841536 117.86326201 103.39095227 116.23429871 103.39154053 C113.76218331 103.39396065 111.29145477 103.42131528 108.81958008 103.45410156 C107.73641494 103.44656546 107.73641494 103.44656546 106.63136768 103.43887711 C101.7680684 103.53978759 99.52973482 104.74380315 96 108 C92.31536783 109.22821072 89.88553855 109.38218412 86 109 C84.96939453 108.18184814 83.93878906 107.36369629 82.87695312 106.52075195 C76.22458455 102.22792634 67.78866129 103.27140428 60.15625 103.29296875 C58.61554014 103.28042738 57.07484672 103.26566456 55.53417969 103.24865723 C49.85627972 103.2014166 44.17808855 103.19699398 38.5 103.1875 C25.795 103.125625 13.09 103.06375 0 103 C0 69.01 0 35.02 0 0 Z " fill="#E6E8E9" transform="translate(56,89)"/>
<path d="M0 0 C1.21780151 0.00012085 2.43560303 0.0002417 3.69030762 0.00036621 C5.61054749 0.00804016 5.61054749 0.00804016 7.56958008 0.01586914 C8.74605103 0.01687622 9.92252197 0.0178833 11.13464355 0.0189209 C15.5361427 0.02415926 19.93762798 0.03812049 24.33911133 0.05102539 C34.17723633 0.07165039 44.01536133 0.09227539 54.15161133 0.11352539 C53.82161133 29.15352539 53.49161133 58.19352539 53.15161133 88.11352539 C52.82161133 88.11352539 52.49161133 88.11352539 52.15161133 88.11352539 C52.1140271 86.50912598 52.1140271 86.50912598 52.07568359 84.87231445 C51.98141605 80.89888812 51.88124275 76.92562871 51.77929688 72.95239258 C51.73602116 71.23368234 51.69434092 69.51493115 51.65429688 67.79614258 C51.59641568 65.32368639 51.53277297 62.85143492 51.46801758 60.37915039 C51.45130508 59.61233948 51.43459259 58.84552856 51.41737366 58.05548096 C51.31989913 54.53458604 51.01152721 51.5531889 50.15161133 48.11352539 C29.36161133 48.11352539 8.57161133 48.11352539 -12.84838867 48.11352539 C-12.84838867 49.76352539 -12.84838867 51.41352539 -12.84838867 53.11352539 C-5.58838867 53.11352539 1.67161133 53.11352539 9.15161133 53.11352539 C11.15161133 57.11352539 11.15161133 57.11352539 11.15161133 60.11352539 C2.90161133 60.11352539 -5.34838867 60.11352539 -13.84838867 60.11352539 C-13.84838867 61.76352539 -13.84838867 63.41352539 -13.84838867 65.11352539 C-14.17838867 65.11352539 -14.50838867 65.11352539 -14.84838867 65.11352539 C-14.84838867 56.53352539 -14.84838867 47.95352539 -14.84838867 39.11352539 C-13.52838867 39.11352539 -12.20838867 39.11352539 -10.84838867 39.11352539 C-10.51838867 37.79352539 -10.18838867 36.47352539 -9.84838867 35.11352539 C-7.20838867 35.11352539 -4.56838867 35.11352539 -1.84838867 35.11352539 C-1.51838867 36.10352539 -1.18838867 37.09352539 -0.84838867 38.11352539 C0.47161133 38.11352539 1.79161133 38.11352539 3.15161133 38.11352539 C2.49161133 36.13352539 1.83161133 34.15352539 1.15161133 32.11352539 C1.48161133 32.11352539 1.81161133 32.11352539 2.15161133 32.11352539 C2.48161133 28.15352539 2.81161133 24.19352539 3.15161133 20.11352539 C3.48161133 20.11352539 3.81161133 20.11352539 4.15161133 20.11352539 C4.15161133 26.05352539 4.15161133 31.99352539 4.15161133 38.11352539 C7.70532478 38.02122115 10.73068158 37.93013443 14.15161133 37.11352539 C18.14979812 32.50955273 17.84848345 25.98793458 18.15161133 20.11352539 C18.48161133 20.11352539 18.81161133 20.11352539 19.15161133 20.11352539 C19.15161133 26.05352539 19.15161133 31.99352539 19.15161133 38.11352539 C20.47161133 38.11352539 21.79161133 38.11352539 23.15161133 38.11352539 C23.15161133 31.84352539 23.15161133 25.57352539 23.15161133 19.11352539 C23.48161133 19.11352539 23.81161133 19.11352539 24.15161133 19.11352539 C24.2727832 20.24532227 24.39395508 21.37711914 24.51879883 22.54321289 C24.68761408 24.0250357 24.85690988 25.50680381 25.02661133 26.98852539 C25.10524414 27.73489258 25.18387695 28.48125977 25.26489258 29.25024414 C25.65968822 33.63907946 25.65968822 33.63907946 28.15161133 37.11352539 C30.84000517 37.38344445 33.44303069 37.20089896 36.15161133 37.11352539 C35.82161133 36.45352539 35.49161133 35.79352539 35.15161133 35.11352539 C33.17161133 35.11352539 31.19161133 35.11352539 29.15161133 35.11352539 C29.15161133 34.45352539 29.15161133 33.79352539 29.15161133 33.11352539 C31.46161133 32.78352539 33.77161133 32.45352539 36.15161133 32.11352539 C36.15161133 30.13352539 36.15161133 28.15352539 36.15161133 26.11352539 C33.84161133 25.78352539 31.53161133 25.45352539 29.15161133 25.11352539 C29.48161133 24.45352539 29.81161133 23.79352539 30.15161133 23.11352539 C34.11161133 23.11352539 38.07161133 23.11352539 42.15161133 23.11352539 C41.16161133 24.43352539 40.17161133 25.75352539 39.15161133 27.11352539 C39.81161133 28.10352539 40.47161133 29.09352539 41.15161133 30.11352539 C40.80519294 33.57770928 40.11874546 35.1628242 38.15161133 38.11352539 C40.12697878 37.76565831 40.12697878 37.76565831 42.15161133 37.11352539 C42.64661133 36.12352539 42.64661133 36.12352539 43.15161133 35.11352539 C44.14161133 35.44352539 45.13161133 35.77352539 46.15161133 36.11352539 C46.15161133 36.77352539 46.15161133 37.43352539 46.15161133 38.11352539 C47.47161133 38.11352539 48.79161133 38.11352539 50.15161133 38.11352539 C49.61536133 37.39165039 49.07911133 36.66977539 48.52661133 35.92602539 C47.15161133 33.11352539 47.15161133 33.11352539 47.83911133 30.42602539 C49.15161133 28.11352539 49.15161133 28.11352539 51.15161133 26.11352539 C51.48161133 18.52352539 51.81161133 10.93352539 52.15161133 3.11352539 C32.02161133 3.11352539 11.89161133 3.11352539 -8.84838867 3.11352539 C-8.84838867 2.45352539 -8.84838867 1.79352539 -8.84838867 1.11352539 C-5.64491408 0.04570053 -3.36651045 -0.00705767 0 0 Z " fill="#0F1627" transform="translate(164.848388671875,88.886474609375)"/>
<path d="M0 0 C0.02895225 3.29164829 0.0467823 6.58326399 0.0625 9.875 C0.07087891 10.81214844 0.07925781 11.74929687 0.08789062 12.71484375 C0.09111328 13.61074219 0.09433594 14.50664062 0.09765625 15.4296875 C0.10289307 16.25710449 0.10812988 17.08452148 0.11352539 17.93701172 C0 20 0 20 -1 22 C-10.89613084 22.21105492 -20.2648233 22.10084738 -30 20 C-30.66 21.98 -31.32 23.96 -32 26 C-32.66 26 -33.32 26 -34 26 C-33.67 23.69 -33.34 21.38 -33 19 C-33.98097656 19.04125 -34.96195313 19.0825 -35.97265625 19.125 C-40.32795825 19.125 -44.25490965 18.13270516 -48.4375 17 C-49.53481445 16.71382812 -49.53481445 16.71382812 -50.65429688 16.421875 C-52.43819666 15.95549597 -54.21939845 15.47881722 -56 15 C-56.33 13.02 -56.66 11.04 -57 9 C-51.58267717 6.98425197 -51.58267717 6.98425197 -48.6875 7.0625 C-46.0004106 7.00000955 -44.32486661 6.5109398 -41.8125 5.625 C-34.69927152 3.13537003 -28.48831294 1.50233741 -21 3 C-20.34 2.34 -19.68 1.68 -19 1 C-12.67148648 -0.15063882 -6.41643961 -0.10615433 0 0 Z " fill="#CBCDD1" transform="translate(145,208)"/>
<path d="M0 0 C4.875 0.875 4.875 0.875 6 2 C6.1875 4.4375 6.1875 4.4375 6 7 C5.34 7.66 4.68 8.32 4 9 C3.76068906 13.78621884 3.85805381 18.31802061 5 23 C7.94386623 24.47193312 10.37390036 23.84936173 13.625 23.5625 C14.81351563 23.46066406 16.00203125 23.35882813 17.2265625 23.25390625 C18.14179687 23.17011719 19.05703125 23.08632812 20 23 C20.144375 22.360625 20.28875 21.72125 20.4375 21.0625 C21 19 21 19 22 18 C24.4375 17.8125 24.4375 17.8125 27 18 C29 20 29 20 29.25 22.5 C29 25 29 25 27 27 C23.9086614 27.23779528 21.96895056 26.98965019 19 26 C16.24146583 26.31436775 16.24146583 26.31436775 13.3125 26.9375 C11.82169922 27.22947266 11.82169922 27.22947266 10.30078125 27.52734375 C9.16189453 27.76130859 9.16189453 27.76130859 8 28 C9.29368293 33.08447479 11.54998681 36.16902208 15.25 39.75 C15.71535156 40.23082031 16.18070313 40.71164063 16.66015625 41.20703125 C19.87423943 44.38569754 22.66921767 45.82342908 27 47 C28 48 28 48 28.1875 50.4375 C28 53 28 53 26 55 C23.5 55.25 23.5 55.25 21 55 C19 53 19 53 18.22265625 49.77734375 C16.76033838 45.25957577 14.70018708 42.8920283 11.4375 39.5625 C10.93025391 39.02173828 10.42300781 38.48097656 9.90039062 37.92382812 C8.63060276 36.58640842 7.31877583 35.28914041 6 34 C5.67 34 5.34 34 5 34 C4.67 40.27 4.34 46.54 4 53 C5.32 53.66 6.64 54.32 8 55 C8.125 57.375 8.125 57.375 8 60 C6 62 6 62 3.5625 62.3125 C1 62 1 62 -0.875 60.8125 C-2 59 -2 59 -1.6875 56.3125 C-1.460625 55.549375 -1.23375 54.78625 -1 54 C0.485 53.505 0.485 53.505 2 53 C1.505 43.595 1.505 43.595 1 34 C-3.32214836 37.6017903 -6.39639201 40.42172972 -9.8125 44.6875 C-10.58207031 45.64011719 -11.35164063 46.59273437 -12.14453125 47.57421875 C-14.59631949 50.69916163 -14.59631949 50.69916163 -14.9375 54.5 C-15 57 -15 57 -17 59 C-20 59.3125 -20 59.3125 -23 59 C-25 56 -25 56 -25.125 53.5 C-24.75375 52.675 -24.3825 51.85 -24 51 C-22.11190534 50.39311243 -20.22277135 49.78923862 -18.328125 49.203125 C-13.33794316 46.6243062 -10.29158399 41.4176522 -7 37 C-5.67225759 35.32887593 -4.3406851 33.66075857 -3 32 C-5.27312618 32.22821346 -7.54356309 32.4833367 -9.8125 32.75 C-11.07707031 32.88921875 -12.34164062 33.0284375 -13.64453125 33.171875 C-17.41039532 34.10128499 -18.02391986 34.82552288 -20 38 C-22.5625 38.375 -22.5625 38.375 -25 38 C-27 36 -27 36 -27.25 33.5 C-27 31 -27 31 -25 29 C-22.4375 28.8125 -22.4375 28.8125 -20 29 C-19.67 29.33 -19.34 29.66 -19 30 C-13.43231263 29.86369127 -8.19646291 29.05123536 -3 27 C-4.5844089 23.07103228 -7.11776054 20.67900154 -10.1875 17.8125 C-11.10917969 16.93207031 -12.03085938 16.05164063 -12.98046875 15.14453125 C-16.44457654 12.68425289 -18.84739018 12.49234536 -23 12 C-25 9 -25 9 -24.6875 6.375 C-24 4 -24 4 -23 3 C-20.0625 2.75 -20.0625 2.75 -17 3 C-15 6 -15 6 -14.70703125 8.36328125 C-13.69835861 12.12490574 -11.58892818 13.64730923 -8.6875 16.1875 C-7.72199219 17.04730469 -6.75648437 17.90710938 -5.76171875 18.79296875 C-2.94473953 21.20181596 -2.94473953 21.20181596 1 23 C1 18.38 1 13.76 1 9 C0.34 9 -0.32 9 -1 9 C-1 8.34 -1 7.68 -1 7 C0.32 6.34 1.64 5.68 3 5 C3 3.68 3 2.36 3 1 C2.01 0.67 1.02 0.34 0 0 Z " fill="#DEE1E5" transform="translate(107,102)"/>
<path d="M0 0 C0.33 0 0.66 0 1 0 C1 32.67 1 65.34 1 99 C22.36055589 98.84192696 22.36055589 98.84192696 43.72070312 98.63964844 C46.40754561 98.62796102 49.0943952 98.61776932 51.78125 98.609375 C52.47021362 98.59892151 53.15917725 98.58846802 53.86901855 98.57769775 C61.82289212 98.46316234 68.1624759 98.52105687 75 103 C75.33 103.33 75.66 103.66 76 104 C80.77541529 103.74458087 80.77541529 103.74458087 84.81393433 101.47639465 C87.83956865 99.43298379 90.03317911 99.6257698 93.66455078 99.62768555 C94.3251651 99.62403488 94.98577942 99.62038422 95.66641235 99.61662292 C97.84297647 99.60853771 100.01879149 99.62210681 102.1953125 99.63671875 C103.7093811 99.63723748 105.22345038 99.63671928 106.73751831 99.63520813 C109.90665778 99.63529775 113.07554232 99.64570914 116.24462891 99.66381836 C120.31142388 99.68654415 124.37784774 99.68704166 128.4446888 99.68030071 C131.56903395 99.67696395 134.69329409 99.6835846 137.81762314 99.69342995 C139.3175703 99.69728441 140.81752691 99.69842915 142.31747818 99.6968441 C144.40991596 99.6964743 146.50187261 99.70906759 148.59423828 99.7253418 C149.78574493 99.72994919 150.97725159 99.73455658 152.2048645 99.73930359 C155 100 155 100 157 102 C155.74212173 102.00213753 155.74212173 102.00213753 154.45883179 102.00431824 C146.54313813 102.02217218 138.62800194 102.06385624 130.71257591 102.13209057 C126.64343315 102.16633363 122.57466474 102.19146628 118.50537109 102.19555664 C114.57575813 102.1998455 110.64698924 102.22835538 106.71763992 102.27343178 C105.22104439 102.28638827 103.72434774 102.29072097 102.22770309 102.28615379 C93.12954982 101.86951681 93.12954982 101.86951681 85.18237305 105.50268555 C84.46218994 106.32679932 83.74200684 107.15091309 83 108 C80.62109375 108.6640625 80.62109375 108.6640625 78.4375 108.625 C77.35275391 108.64433594 77.35275391 108.64433594 76.24609375 108.6640625 C74 108 74 108 71.82539368 105.49971008 C68.37417056 102.44631002 65.9440068 102.28520878 61.54760742 102.34057617 C60.80359082 102.33006131 60.05957422 102.31954645 59.29301167 102.30871296 C56.89671767 102.28042982 54.50189186 102.28598954 52.10546875 102.29296875 C50.6212766 102.28043771 49.13710154 102.26567865 47.6529541 102.24865723 C42.16463595 102.20128929 36.67601437 102.19698364 31.1875 102.1875 C18.915625 102.125625 6.64375 102.06375 -6 102 C-6 69.99 -6 37.98 -6 5 C-5.67 5 -5.34 5 -5 5 C-4.67 36.02 -4.34 67.04 -4 99 C-3.34 99 -2.68 99 -2 99 C-1.98969254 97.78921783 -1.97938507 96.57843567 -1.96876526 95.33096313 C-1.87116705 83.94123802 -1.76844607 72.55156921 -1.66066074 61.16193581 C-1.60540831 55.30589332 -1.5519846 49.44984587 -1.50268555 43.59375 C-1.45507623 37.94625767 -1.40273469 32.29882752 -1.34705925 26.65140915 C-1.32662012 24.49277665 -1.30790966 22.33412709 -1.29092598 20.17546463 C-1.26691645 17.160696 -1.2368572 14.14604561 -1.20532227 11.13134766 C-1.1995668 10.23151657 -1.19381134 9.33168549 -1.18788147 8.40458679 C-1.11405216 2.22810432 -1.11405216 2.22810432 0 0 Z " fill="#0D1019" transform="translate(67,84)"/>
<path d="M0 0 C20.46 0 40.92 0 62 0 C62 1.65 62 3.3 62 5 C52.76 5.33 43.52 5.66 34 6 C37.63 7.32 41.26 8.64 45 10 C45 10.66 45 11.32 45 12 C40.61538462 15 40.61538462 15 38 15 C38.68835938 15.77923828 38.68835938 15.77923828 39.390625 16.57421875 C42.68382608 20.31712166 45.92952189 24.06978801 49 28 C48.01 28.33 47.02 28.66 46 29 C44.09765625 27.671875 44.09765625 27.671875 42.0625 25.75 C39.46703165 23.32956324 36.87531459 21.08412064 34 19 C33.690625 19.61875 33.38125 20.2375 33.0625 20.875 C32.375 22.25 31.6875 23.625 31 25 C30.34 25 29.68 25 29 25 C27.8278551 22.04380781 26.66322524 19.08471211 25.5 16.125 C25.16613281 15.28324219 24.83226562 14.44148437 24.48828125 13.57421875 C24.17246094 12.76855469 23.85664063 11.96289062 23.53125 11.1328125 C23.09135742 10.01737061 23.09135742 10.01737061 22.64257812 8.87939453 C22 7 22 7 22 5 C14.74 5 7.48 5 0 5 C0 3.35 0 1.7 0 0 Z " fill="#409D52" transform="translate(152,137)"/>
<path d="M0 0 C2.00993705 3.01490557 2.72623341 5.2149927 3.625 8.6875 C4.01558594 10.17830078 4.01558594 10.17830078 4.4140625 11.69921875 C4.60742188 12.45847656 4.80078125 13.21773437 5 14 C5.66 14 6.32 14 7 14 C7.309375 13.38125 7.61875 12.7625 7.9375 12.125 C8.625 10.75 9.3125 9.375 10 8 C13.21272249 9.43993643 15.6206664 11.23018372 18.25 13.5625 C18.95640625 14.18253906 19.6628125 14.80257812 20.390625 15.44140625 C20.92171875 15.95574219 21.4528125 16.47007812 22 17 C22 17.33 22 17.66 22 18 C6.82 18 -8.36 18 -24 18 C-26.25 10.125 -26.25 10.125 -25.625 5.5625 C-25.51414063 4.69753906 -25.40328125 3.83257812 -25.2890625 2.94140625 C-25.19367188 2.30074219 -25.09828125 1.66007813 -25 1 C-20.8761323 0.74598399 -16.75114808 0.52599895 -12.625 0.3125 C-11.449375 0.23966797 -10.27375 0.16683594 -9.0625 0.09179688 C-7.94101563 0.03701172 -6.81953125 -0.01777344 -5.6640625 -0.07421875 C-4.62717285 -0.13182373 -3.5902832 -0.18942871 -2.52197266 -0.2487793 C-1.68972168 -0.16668213 -0.8574707 -0.08458496 0 0 Z " fill="#0C1F27" transform="translate(176,148)"/>
<path d="M0 0 C1.32 0 2.64 0 4 0 C4 31.68 4 63.36 4 96 C2.35 96 0.7 96 -1 96 C-1.02312154 83.63081285 -1.04091412 71.26163081 -1.05181217 58.89242649 C-1.05704141 53.14954938 -1.0641398 47.40668699 -1.07543945 41.66381836 C-1.08626687 36.12660005 -1.09227652 30.58939596 -1.09487724 25.05216789 C-1.09673176 22.93455723 -1.10035286 20.81694738 -1.10573006 18.69934273 C-1.11293856 15.74428726 -1.11399102 12.78929129 -1.11352539 9.83422852 C-1.11712067 8.94950363 -1.12071594 8.06477875 -1.12442017 7.15324402 C-1.11405216 1.11405216 -1.11405216 1.11405216 0 0 Z " fill="#0F1724" transform="translate(227,89)"/>
<path d="M0 0 C3.67197162 -0.04589965 7.32911441 -0.03884535 11 0 C11.74765625 -0.0309375 12.4953125 -0.061875 13.265625 -0.09375 C16.59493902 -0.04131986 18.60283701 0.6122559 20.9765625 2.9296875 C28 11.74511317 28 11.74511317 28 17 C20.39607971 20.80196014 8.29584787 19.0761087 0 19 C0 12.73 0 6.46 0 0 Z " fill="#1B202F" transform="translate(147,208)"/>
<path d="M0 0 C0.74362793 0.01047363 1.48725586 0.02094727 2.25341797 0.03173828 C3.34227295 0.03923096 3.34227295 0.03923096 4.453125 0.046875 C5.37464355 0.06508301 6.29616211 0.08329102 7.24560547 0.10205078 C10.17435547 0.14330078 13.10310547 0.18455078 16.12060547 0.22705078 C16.12060547 6.16705078 16.12060547 12.10705078 16.12060547 18.22705078 C-1.35092073 18.37511456 -1.35092073 18.37511456 -9.87939453 17.22705078 C-10.58642578 15.57861328 -10.58642578 15.57861328 -10.87939453 13.22705078 C-9.51611328 10.50048828 -9.51611328 10.50048828 -7.56689453 7.60205078 C-6.93138672 6.64041016 -6.29587891 5.67876953 -5.64111328 4.68798828 C-2.50144671 0.30220128 -2.50144671 0.30220128 0 0 Z " fill="#151A2A" transform="translate(127.87939453125,208.77294921875)"/>
<path d="M0 0 C3.35951302 0.60538788 6.44884363 1.43324081 9.64453125 2.62890625 C10.90620117 3.09780273 10.90620117 3.09780273 12.19335938 3.57617188 C13.48983398 4.0644043 13.48983398 4.0644043 14.8125 4.5625 C15.69615234 4.89185547 16.57980469 5.22121094 17.49023438 5.56054688 C19.66143495 6.37034601 21.83127889 7.18358893 24 8 C24 8.66 24 9.32 24 10 C19.61538462 13 19.61538462 13 17 13 C17.45890625 13.51949219 17.9178125 14.03898438 18.390625 14.57421875 C21.68382608 18.31712166 24.92952189 22.06978801 28 26 C27.01 26.33 26.02 26.66 25 27 C23.09765625 25.671875 23.09765625 25.671875 21.0625 23.75 C18.46703165 21.32956324 15.87531459 19.08412064 13 17 C12.690625 17.61875 12.38125 18.2375 12.0625 18.875 C11.375 20.25 10.6875 21.625 10 23 C9.34 23 8.68 23 8 23 C6.66128359 19.54372619 5.32994608 16.08465703 4 12.625 C3.6184375 11.64015625 3.236875 10.6553125 2.84375 9.640625 C2.30234375 8.22910156 2.30234375 8.22910156 1.75 6.7890625 C1.41484375 5.91975098 1.0796875 5.05043945 0.734375 4.15478516 C0 2 0 2 0 0 Z " fill="#F3F8F5" transform="translate(173,139)"/>
<path d="M0 0 C14.7571875 -0.0309375 14.7571875 -0.0309375 29.8125 -0.0625 C32.91760986 -0.071604 36.02271973 -0.08070801 39.22192383 -0.09008789 C41.67529253 -0.09300772 44.12866171 -0.09555612 46.58203125 -0.09765625 C47.86219116 -0.10277222 49.14235107 -0.10788818 50.46130371 -0.11315918 C52.28800598 -0.11334045 52.28800598 -0.11334045 54.15161133 -0.11352539 C55.21084305 -0.115746 56.27007477 -0.11796661 57.36140442 -0.12025452 C60 0 60 0 63 1 C63 1.66 63 2.32 63 3 C42.54 3 22.08 3 1 3 C1 31.05 1 59.1 1 88 C0.67 88 0.34 88 0 88 C0 58.96 0 29.92 0 0 Z " fill="#030819" transform="translate(73,89)"/>
<path d="M0 0 C0.73151779 0.00719055 1.46303558 0.0143811 2.21672058 0.02178955 C2.98754471 0.0214975 3.75836884 0.02120544 4.55255127 0.02090454 C7.10657413 0.02230059 9.66030713 0.03787454 12.21427917 0.05352783 C13.98261862 0.05725699 15.75096012 0.06010442 17.51930237 0.06210327 C22.17840763 0.06974741 26.83738862 0.08940255 31.4964447 0.11151123 C36.24872659 0.13195289 41.00102852 0.14110139 45.75334167 0.15118408 C55.08152134 0.17264774 64.40960868 0.20679305 73.73771667 0.24884033 C70.91815559 3.06840141 68.21843431 2.55624445 64.44230652 2.56768799 C63.31533104 2.58275642 63.31533104 2.58275642 62.16558838 2.59812927 C59.67661826 2.62907584 57.18775624 2.64602798 54.69865417 2.66290283 C52.97514407 2.68160528 51.2516432 2.70117799 49.52815247 2.72158813 C44.98752786 2.77301298 40.44687353 2.81258312 35.90611267 2.84973145 C31.27438442 2.88970638 26.6427809 2.94082833 22.01115417 2.99102783 C12.92009583 3.0879096 3.82896723 3.17227501 -5.26228333 3.24884033 C-5.59228333 3.90884033 -5.92228333 4.56884033 -6.26228333 5.24884033 C-4.61228333 5.24884033 -2.96228333 5.24884033 -1.26228333 5.24884033 C-2.33381653 6.71685791 -2.33381653 6.71685791 -4.26228333 8.24884033 C-7.35676575 8.68121338 -7.35676575 8.68121338 -11.11775208 8.76055908 C-11.77938858 8.77851028 -12.44102509 8.79646149 -13.12271118 8.81495667 C-15.23167079 8.86904932 -17.34040431 8.90294964 -19.44978333 8.93634033 C-20.88145541 8.9695146 -22.31309766 9.00400438 -23.7447052 9.03985596 C-27.25034722 9.1247729 -30.75606806 9.19158955 -34.26228333 9.24884033 C-33.93228333 8.25884033 -33.60228333 7.26884033 -33.26228333 6.24884033 C-30.95228333 6.24884033 -28.64228333 6.24884033 -26.26228333 6.24884033 C-26.26228333 5.25884033 -26.26228333 4.26884033 -26.26228333 3.24884033 C-24.99384583 3.74384033 -24.99384583 3.74384033 -23.69978333 4.24884033 C-18.60222192 5.73176729 -14.89286114 5.92568396 -9.94978333 3.87384033 C-3.56734912 0.01469407 -3.56734912 0.01469407 0 0 Z " fill="#060A18" transform="translate(162.2622833251953,191.75115966796875)"/>
<path d="M0 0 C3.21272249 1.43993643 5.6206664 3.23018372 8.25 5.5625 C8.95640625 6.18253906 9.6628125 6.80257812 10.390625 7.44140625 C10.92171875 7.95574219 11.4528125 8.47007812 12 9 C12 9.33 12 9.66 12 10 C-3.18 10 -18.36 10 -34 10 C-34 8.35 -34 6.7 -34 5 C-29.90658501 4.97530425 -25.81319879 4.95714207 -21.71972656 4.94506836 C-20.32681523 4.9400357 -18.9339092 4.93320902 -17.54101562 4.92456055 C-15.54038754 4.91244848 -13.53972112 4.90729588 -11.5390625 4.90234375 C-10.33459473 4.89710693 -9.13012695 4.89187012 -7.88916016 4.88647461 C-5 5 -5 5 -3 6 C-2.690625 5.38125 -2.38125 4.7625 -2.0625 4.125 C-1.375 2.75 -0.6875 1.375 0 0 Z " fill="#3B7E4F" transform="translate(186,156)"/>
<path d="M0 0 C9.67401809 0.93019405 20.47147819 2.29075851 28 9 C28 9.66 28 10.32 28 11 C25.06333774 11.67055285 22.12577641 12.33659053 19.1875 13 C18.35412109 13.19078125 17.52074219 13.3815625 16.66210938 13.578125 C15.85966797 13.75859375 15.05722656 13.9390625 14.23046875 14.125 C13.49207764 14.29257813 12.75368652 14.46015625 11.99291992 14.6328125 C10 15 10 15 7 15 C6.01836578 13.06374902 5.03977546 11.12595461 4.0625 9.1875 C3.51722656 8.10855469 2.97195312 7.02960938 2.41015625 5.91796875 C1 3 1 3 0 0 Z " fill="#151B28" transform="translate(171,210)"/>
<path d="M0 0 C-0.40992187 0.59167969 -0.81984375 1.18335938 -1.2421875 1.79296875 C-1.78101562 2.58316406 -2.31984375 3.37335938 -2.875 4.1875 C-3.40867187 4.96480469 -3.94234375 5.74210938 -4.4921875 6.54296875 C-5.98015439 8.9676609 -7.02428078 11.3333499 -8 14 C-15.38605667 13.04296522 -22.14117712 11.95870791 -29 9 C-23.12351652 2.18327916 -8.7038157 -3.19643852 0 0 Z " fill="#151B29" transform="translate(122,211)"/>
<path d="M0 0 C0.33 0 0.66 0 1 0 C1.33 7.59 1.66 15.18 2 23 C2.33 21.68 2.66 20.36 3 19 C3.99 18.67 4.98 18.34 6 18 C4.66666667 22 3.33333333 26 2 30 C2.99 30.33 3.98 30.66 5 31 C3.68 31 2.36 31 1 31 C1 48.49 1 65.98 1 84 C0.01 84.495 0.01 84.495 -1 85 C-1.02313567 74.21268989 -1.04092136 63.42538564 -1.05181217 52.6380558 C-1.05703831 47.6294632 -1.0641311 42.62088754 -1.07543945 37.61230469 C-1.08627786 32.78182178 -1.09227887 27.95135518 -1.09487724 23.12086105 C-1.09672976 21.27481199 -1.10034709 19.42876385 -1.10573006 17.58272171 C-1.11295312 15.00385839 -1.1139904 12.42506315 -1.11352539 9.84619141 C-1.11712067 9.07727066 -1.12071594 8.30834991 -1.12442017 7.51612854 C-1.11405216 2.22810432 -1.11405216 2.22810432 0 0 Z " fill="#313343" transform="translate(149,97)"/>
<path d="M0 0 C1.80152779 0.0001133 1.80152779 0.0001133 3.63945007 0.00022888 C5.58486443 0.00797081 5.58486443 0.00797081 7.56958008 0.01586914 C8.91050667 0.01773462 10.25143394 0.01915791 11.59236145 0.02015686 C15.11870206 0.02397183 18.64500137 0.0337934 22.17132568 0.04486084 C25.77086834 0.05509689 29.37041768 0.05965918 32.9699707 0.06469727 C40.03053446 0.07541659 47.09107019 0.09248077 54.15161133 0.11352539 C54.15161133 1.76352539 54.15161133 3.41352539 54.15161133 5.11352539 C53.49161133 4.45352539 52.83161133 3.79352539 52.15161133 3.11352539 C49.48056784 2.82019868 49.48056784 2.82019868 46.32495117 2.88647461 C45.10383636 2.88662567 43.88272156 2.88677673 42.62460327 2.88693237 C41.28725015 2.89714636 39.94989867 2.90757837 38.61254883 2.91821289 C37.24777432 2.92194259 35.88299714 2.92478976 34.51821899 2.92678833 C30.92440409 2.93442826 27.3307506 2.95407967 23.73699951 2.97619629 C20.07053816 2.99664707 16.40405076 3.00578839 12.73754883 3.01586914 C5.54216271 3.03732536 -1.65309038 3.07146547 -8.84838867 3.11352539 C-8.84838867 2.45352539 -8.84838867 1.79352539 -8.84838867 1.11352539 C-5.64491408 0.04570053 -3.36651045 -0.00705767 0 0 Z " fill="#0F162A" transform="translate(164.848388671875,88.886474609375)"/>
<path d="M0 0 C0.33 0 0.66 0 1 0 C1.33 33 1.66 66 2 100 C3.98 100.495 3.98 100.495 6 101 C6 101.33 6 101.66 6 102 C-0.75 102.125 -0.75 102.125 -3 101 C-5.03160472 100.87962039 -7.0670744 100.82260878 -9.10205078 100.79467773 C-10.38322784 100.77473251 -11.66440491 100.75478729 -12.98440552 100.73423767 C-14.38803994 100.71725331 -15.79167563 100.70037451 -17.1953125 100.68359375 C-18.62735597 100.6630246 -20.05939337 100.64202814 -21.49142456 100.62062073 C-25.26266563 100.56539597 -29.03396152 100.51598853 -32.80529785 100.46777344 C-36.65280036 100.41756133 -40.50022313 100.36187376 -44.34765625 100.30664062 C-51.89837 100.19905413 -59.44915 100.09761029 -67 100 C-67 99.67 -67 99.34 -67 99 C-45.22 98.67 -23.44 98.34 -1 98 C-0.67 65.66 -0.34 33.32 0 0 Z " fill="#202532" transform="translate(225,84)"/>
<path d="M0 0 C-3.92286166 3.92286166 -10.93107508 4.74978815 -16.34765625 5.19140625 C-17.89974614 5.18821921 -19.45150196 5.10557941 -21 5 C-20.505 8.465 -20.505 8.465 -20 12 C-20.99 11.67 -21.98 11.34 -23 11 C-23.33 9.35 -23.66 7.7 -24 6 C-24.99 6.495 -24.99 6.495 -26 7 C-35.1679125 8.65759132 -44.72558535 8.09092563 -54 8 C-54 7.67 -54 7.34 -54 7 C-49.05 6.34 -44.1 5.68 -39 5 C-39 4.67 -39 4.34 -39 4 C-32.565 3.505 -32.565 3.505 -26 3 C-26 2.01 -26 1.02 -26 0 C-25.01 0 -24.02 0 -23 0 C-23 0.99 -23 1.98 -23 3 C-21.84242188 2.69964844 -20.68484375 2.39929688 -19.4921875 2.08984375 C-17.95327806 1.70511639 -16.41420681 1.32103591 -14.875 0.9375 C-14.11445313 0.73833984 -13.35390625 0.53917969 -12.5703125 0.33398438 C-8.03271975 -0.78085522 -4.63688054 -1.17773803 0 0 Z " fill="#C0C2C6" transform="translate(201,222)"/>
<path d="M0 0 C10.23 0 20.46 0 31 0 C31 0.66 31 1.32 31 2 C30.01 2 29.02 2 28 2 C27.67 2.99 27.34 3.98 27 5 C27.99 5.66 28.98 6.32 30 7 C24.39 7 18.78 7 13 7 C13 6.34 13 5.68 13 5 C12.39671875 4.89042969 11.7934375 4.78085938 11.171875 4.66796875 C10.37265625 4.50941406 9.5734375 4.35085937 8.75 4.1875 C7.96109375 4.03667969 7.1721875 3.88585937 6.359375 3.73046875 C4 3 4 3 0 0 Z " fill="#0E1B29" transform="translate(184,142)"/>
<path d="M0 0 C0 0.66 0 1.32 0 2 C-1.02682137 1.75885216 -1.02682137 1.75885216 -2.0743866 1.51283264 C-5.3628656 0.93639306 -8.47082488 0.83804124 -11.80981445 0.79467773 C-12.47378738 0.78477814 -13.13776031 0.77487854 -13.82185364 0.76467896 C-16.00229405 0.73325574 -18.18275619 0.70838301 -20.36328125 0.68359375 C-21.88071742 0.66300762 -23.39814807 0.64201073 -24.91557312 0.62062073 C-28.89884963 0.56557127 -32.88217641 0.51608688 -36.86553955 0.46777344 C-40.93449347 0.41743293 -45.00337486 0.36181253 -49.07226562 0.30664062 C-57.04811567 0.19926869 -65.0240266 0.09777767 -73 0 C-73.33 0.66 -73.66 1.32 -74 2 C-74 1.01 -74 0.02 -74 -1 C-65.78689207 -1.77716097 -57.62212735 -2.2006612 -49.375 -2.3515625 C-48.22507568 -2.37471527 -47.07515137 -2.39786804 -45.89038086 -2.42172241 C-43.48376134 -2.46896519 -41.07710248 -2.5142417 -38.67041016 -2.55761719 C-34.98192838 -2.62533177 -31.29373981 -2.70297392 -27.60546875 -2.78125 C-25.25782385 -2.8261185 -22.91016783 -2.87041009 -20.5625 -2.9140625 C-18.91096924 -2.94990952 -18.91096924 -2.94990952 -17.22607422 -2.98648071 C-15.69297607 -3.0117836 -15.69297607 -3.0117836 -14.12890625 -3.03759766 C-13.23244385 -3.05456696 -12.33598145 -3.07153625 -11.41235352 -3.08901978 C-7.24214996 -2.93513247 -3.82862315 -1.59525965 0 0 Z " fill="#12171F" transform="translate(140,84)"/>
<path d="M0 0 C2 3 2 3 2 6 C-6.58 6 -15.16 6 -24 6 C-24 4.35 -24 2.7 -24 1 C-20.04284803 0.74594853 -16.0845315 0.52598212 -12.125 0.3125 C-10.43310547 0.20325195 -10.43310547 0.20325195 -8.70703125 0.09179688 C-7.63066406 0.03701172 -6.55429688 -0.01777344 -5.4453125 -0.07421875 C-4.45031738 -0.13182373 -3.45532227 -0.18942871 -2.43017578 -0.2487793 C-1.62821777 -0.16668213 -0.82625977 -0.08458496 0 0 Z " fill="#48A45A" transform="translate(176,148)"/>
<path d="M0 0 C0.66 0 1.32 0 2 0 C3.33819498 2.6226232 4.6707151 5.24786599 6 7.875 C6.3815625 8.62136719 6.763125 9.36773437 7.15625 10.13671875 C7.5171875 10.85214844 7.878125 11.56757812 8.25 12.3046875 C8.58515625 12.96452637 8.9203125 13.62436523 9.265625 14.30419922 C10 16 10 16 10 18 C8.68 18 7.36 18 6 18 C5.67 17.34 5.34 16.68 5 16 C2.36 16 -0.28 16 -3 16 C-3.33 16.66 -3.66 17.32 -4 18 C-4.99 18 -5.98 18 -7 18 C-6.56802365 13.2482602 -5.67230705 11.07999946 -2 8 C-1.67 9.32 -1.34 10.64 -1 12 C0.32 12 1.64 12 3 12 C2.67 10.35 2.34 8.7 2 7 C1.01 7 0.02 7 -1 7 C-0.67 4.69 -0.34 2.38 0 0 Z " fill="#E2E4E7" transform="translate(158,109)"/>
<path d="M0 0 C0.66 0 1.32 0 2 0 C1.67 6.93 1.34 13.86 1 21 C2.32 21.66 3.64 22.32 5 23 C5.125 25.375 5.125 25.375 5 28 C3 30 3 30 0.5625 30.3125 C-2 30 -2 30 -3.875 28.8125 C-5 27 -5 27 -4.6875 24.3125 C-4.3471875 23.1678125 -4.3471875 23.1678125 -4 22 C-3.01 21.67 -2.02 21.34 -1 21 C-1.00523682 20.39937744 -1.01047363 19.79875488 -1.01586914 19.17993164 C-1.03658014 16.47413162 -1.04964125 13.76834823 -1.0625 11.0625 C-1.07087891 10.11697266 -1.07925781 9.17144531 -1.08789062 8.19726562 C-1.09111328 7.29814453 -1.09433594 6.39902344 -1.09765625 5.47265625 C-1.10289307 4.64000244 -1.10812988 3.80734863 -1.11352539 2.94946289 C-1 1 -1 1 0 0 Z " fill="#F3F5F8" transform="translate(110,134)"/>
<path d="M0 0 C1.32547852 0.02030273 1.32547852 0.02030273 2.67773438 0.04101562 C4.84792023 0.07620783 7.01779033 0.13001015 9.1875 0.1875 C9.1875 1.8375 9.1875 3.4875 9.1875 5.1875 C1.2675 5.1875 -6.6525 5.1875 -14.8125 5.1875 C-14.8125 4.5275 -14.8125 3.8675 -14.8125 3.1875 C-10.29842581 -0.67236054 -5.60532246 -0.16301833 0 0 Z " fill="#4E9F60" transform="translate(204.8125,148.8125)"/>
<path d="M0 0 C1.9375 1.25 1.9375 1.25 3 3 C2.6875 5.1875 2.6875 5.1875 2 7 C-0.31 7 -2.62 7 -5 7 C-5 7.66 -5 8.32 -5 9 C-3.02 8.67 -1.04 8.34 1 8 C1.33 8.99 1.66 9.98 2 11 C-0.79870027 12.39935013 -2.90498792 12.25265405 -6 12 C-7.875 10.875 -7.875 10.875 -9 9 C-9.39365568 5.85075452 -9.52854531 3.88090884 -7.875 1.125 C-5.11909116 -0.52854531 -3.14924548 -0.39365568 0 0 Z " fill="#CCCDD0" transform="translate(199,115)"/>
<path d="M0 0 C0.99 0 1.98 0 3 0 C3 1.98 3 3.96 3 6 C2.34 6 1.68 6 1 6 C1.99 8.64 2.98 11.28 4 14 C5.32 14 6.64 14 8 14 C7.67 11.69 7.34 9.38 7 7 C8.32 7 9.64 7 11 7 C12.50662097 10.01324195 12.17770373 12.68286377 12 16 C10 18 10 18 7.6171875 18.1953125 C6.71226562 18.17210938 5.80734375 18.14890625 4.875 18.125 C3.26625 18.08375 1.6575 18.0425 0 18 C0 12.06 0 6.12 0 0 Z " fill="#F2F2F4" transform="translate(169,109)"/>
<path d="M0 0 C2.15425887 0.96570225 3.76745516 1.74631472 5.375 3.5 C7.63430054 5.58550819 10.09211138 6.11499042 13 7 C14 8 14 8 14.1875 10.4375 C14 13 14 13 12 15 C9.5 15.25 9.5 15.25 7 15 C5 13 5 13 4.125 9.6875 C2.97722064 5.92533433 1.61772697 3.87949967 -1 1 C-0.67 0.67 -0.34 0.34 0 0 Z " fill="#E3E6EB" transform="translate(121,142)"/>
<path d="M0 0 C0.78375 0.165 1.5675 0.33 2.375 0.5 C5.9124162 1.17379356 8.49561161 0.73776598 12 0 C11.62875 1.051875 11.2575 2.10375 10.875 3.1875 C9.95723754 7.18632214 10.08615391 8.49128216 12 12 C8 12 8 12 6.25 10.5 C5.8375 10.005 5.425 9.51 5 9 C4.67 9.99 4.34 10.98 4 12 C2.68 12 1.36 12 0 12 C0.350625 11.46375 0.70125 10.9275 1.0625 10.375 C2.30135166 7.2365758 1.77427459 5.23787556 1 2 C0.67 1.34 0.34 0.68 0 0 Z " fill="#E9ECEE" transform="translate(203,115)"/>
<path d="M0 0 C1.67542976 0.28604898 3.34385343 0.61781233 5 1 C5.625 2.875 5.625 2.875 6 5 C5.34 5.66 4.68 6.32 4 7 C3.01 7 2.02 7 1 7 C1 7.66 1 8.32 1 9 C1.66 9 2.32 9 3 9 C3 13.62 3 18.24 3 23 C0.525 22.01 0.525 22.01 -2 21 C-2.33 20.01 -2.66 19.02 -3 18 C-2.34 18 -1.68 18 -1 18 C-0.814375 16.72125 -0.62875 15.4425 -0.4375 14.125 C-0.33308594 13.40570313 -0.22867188 12.68640625 -0.12109375 11.9453125 C0.1684297 9.91859333 0.1684297 9.91859333 -1 8 C-1.125 4.4375 -1.125 4.4375 -1 1 C-0.67 0.67 -0.34 0.34 0 0 Z " fill="#252A38" transform="translate(105,102)"/>
<path d="M0 0 C9.24 0 18.48 0 28 0 C28 0.66 28 1.32 28 2 C28.66 2.33 29.32 2.66 30 3 C20.1 3 10.2 3 0 3 C0 2.01 0 1.02 0 0 Z " fill="#44AD55" transform="translate(153,161)"/>
<path d="M0 0 C7.59 0 15.18 0 23 0 C22.01 0.33 21.02 0.66 20 1 C20.33 1.99 20.66 2.98 21 4 C14.07 4 7.14 4 0 4 C0 2.68 0 1.36 0 0 Z " fill="#48A75B" transform="translate(153,138)"/>
<path d="M0 0 C7.59 0 15.18 0 23 0 C23 0.33 23 0.66 23 1 C21.35 1.33 19.7 1.66 18 2 C17.67 2.99 17.34 3.98 17 5 C15.11071648 5.33145325 13.21275488 5.6136863 11.3125 5.875 C10.25675781 6.03742188 9.20101562 6.19984375 8.11328125 6.3671875 C5 6 5 6 0 0 Z " fill="#0A1920" transform="translate(191,154)"/>
<path d="M0 0 C9.40717019 -1.14632828 14.55730325 1.43235669 22 7 C23.39510086 7.98021 24.79081926 8.95954246 26.1875 9.9375 C27.115625 10.618125 28.04375 11.29875 29 12 C28.01 12.495 28.01 12.495 27 13 C24.4601132 11.83950863 22.0239397 10.6222569 19.5625 9.3125 C13.18989877 6.01117048 6.84586802 3.20460156 0 1 C0 0.67 0 0.34 0 0 Z " fill="#D7D9DB" transform="translate(209,219)"/>
<path d="M0 0 C7.26 0 14.52 0 22 0 C24 4 24 4 24 7 C16.08 7 8.16 7 0 7 C0 6.67 0 6.34 0 6 C10.395 5.505 10.395 5.505 21 5 C20.67 4.01 20.34 3.02 20 2 C19.39414063 2.01160156 18.78828125 2.02320313 18.1640625 2.03515625 C12.04075052 2.10109961 6.07906669 1.72431433 0 1 C0 0.67 0 0.34 0 0 Z " fill="#06211B" transform="translate(152,142)"/>
<path d="M0 0 C9.9 0 19.8 0 30 0 C25.94877091 2.02561455 23.74493381 2.32921401 19.3125 2.5625 C15.33729387 2.43082814 15.33729387 2.43082814 12 4 C6.37970003 3.63145574 4.67747344 3.50810508 0 0 Z " fill="#0B2820" transform="translate(184,142)"/>
<path d="M0 0 C1.2375 0.1546875 1.2375 0.1546875 2.5 0.3125 C4.5 3.3125 4.5 3.3125 4.1875 5.9375 C3.5 8.3125 3.5 8.3125 2.5 9.3125 C0.0625 9.5 0.0625 9.5 -2.5 9.3125 C-4.5 7.3125 -4.5 7.3125 -4.75 4.8125 C-4.40047575 1.3172575 -3.47557682 0.4344471 0 0 Z " fill="#EBEFF0" transform="translate(84.5,130.6875)"/>
<path d="M0 0 C5.28 0 10.56 0 16 0 C16 1.32 16 2.64 16 4 C11.38 4.33 6.76 4.66 2 5 C1.34 3.35 0.68 1.7 0 0 Z " fill="#48A65C" transform="translate(198,161)"/>
<path d="M0 0 C0.33 0 0.66 0 1 0 C1 1.98 1 3.96 1 6 C2.65 6 4.3 6 6 6 C5.01 6.495 5.01 6.495 4 7 C4.99 8.485 4.99 8.485 6 10 C5.625 12.6875 5.625 12.6875 5 15 C2.625 14.8125 2.625 14.8125 0 14 C-1.59660706 11.11090151 -2 9.30941204 -2 6 C-1.34 6 -0.68 6 0 6 C0 4.02 0 2.04 0 0 Z " fill="#CED1D4" transform="translate(172,109)"/>
<path d="M0 0 C4.875 0.875 4.875 0.875 6 2 C6.1875 4.4375 6.1875 4.4375 6 7 C5.34 7.66 4.68 8.32 4 9 C3.69400937 11.56916657 3.48912913 14.04758384 3.375 16.625 C3.33632812 17.33140625 3.29765625 18.0378125 3.2578125 18.765625 C3.16352276 20.50998524 3.08067109 22.25495691 3 24 C2.34 23.67 1.68 23.34 1 23 C1 18.38 1 13.76 1 9 C0.34 9 -0.32 9 -1 9 C-1 8.34 -1 7.68 -1 7 C0.32 6.34 1.64 5.68 3 5 C3 3.68 3 2.36 3 1 C2.01 0.67 1.02 0.34 0 0 Z " fill="#E3E7E9" transform="translate(107,102)"/>
<path d="M0 0 C4 4 8 8 12 12 C11.67 12.66 11.34 13.32 11 14 C6.95838045 12.65515286 4.61321846 10.9494838 1.6875 7.875 C0.99011719 7.15054688 0.29273438 6.42609375 -0.42578125 5.6796875 C-1.20501953 4.84824219 -1.20501953 4.84824219 -2 4 C-1.34 2.68 -0.68 1.36 0 0 Z " fill="#DFEAE4" transform="translate(189,152)"/>
<path d="M0 0 C1.65 0 3.3 0 5 0 C5 0.66 5 1.32 5 2 C3.35 2.66 1.7 3.32 0 4 C-0.33 6.64 -0.66 9.28 -1 12 C-2.65 11.67 -4.3 11.34 -6 11 C-6.33 12.32 -6.66 13.64 -7 15 C-7.52735777 9.81431524 -7.52735777 9.81431524 -7 7 C-5.21301364 4.83737086 -3.34013969 3.6237704 -1 2 C-0.67 1.34 -0.34 0.68 0 0 Z " fill="#0E1522" transform="translate(81,129)"/>
<path d="M0 0 C0.99 0 1.98 0 3 0 C3 5.94 3 11.88 3 18 C2.01 18 1.02 18 0 18 C0 12.06 0 6.12 0 0 Z " fill="#EFF2F4" transform="translate(184,109)"/>
<path d="M0 0 C1.98 0 3.96 0 6 0 C6.33 0.99 6.66 1.98 7 3 C7.66 3 8.32 3 9 3 C8.34 4.32 7.68 5.64 7 7 C4.15673536 7.23053497 2.53854651 7.35903101 0.125 5.75 C-1 4 -1 4 -0.6875 1.8125 C-0.460625 1.214375 -0.23375 0.61625 0 0 Z " fill="#CCCFD5" transform="translate(106,157)"/>
<path d="M0 0 C1.79133978 -0.05391993 3.58313899 -0.09275571 5.375 -0.125 C6.37273437 -0.14820313 7.37046875 -0.17140625 8.3984375 -0.1953125 C11 0 11 0 13 2 C10.36 1.67 7.72 1.34 5 1 C5.433125 1.69867188 5.86625 2.39734375 6.3125 3.1171875 C6.869375 4.02726563 7.42625 4.93734375 8 5.875 C8.8353125 7.23238281 8.8353125 7.23238281 9.6875 8.6171875 C11 11 11 11 11 13 C10.01 13 9.02 13 8 13 C6.2109375 10.6640625 6.2109375 10.6640625 4.375 7.625 C3.76398438 6.62726563 3.15296875 5.62953125 2.5234375 4.6015625 C1.63945386 3.09199043 0.78233432 1.56466863 0 0 Z " fill="#DFE2E4" transform="translate(166,209)"/>
<path d="M0 0 C3.86097306 1.28699102 3.96775835 2.53766238 6 6 C7.932668 8.39353499 9.95429514 10.70271978 12 13 C10.68 13.33 9.36 13.66 8 14 C6.51851668 12.21024844 5.03988094 10.41813943 3.5625 8.625 C2.73878906 7.62726563 1.91507813 6.62953125 1.06640625 5.6015625 C-1 3 -1 3 -2 1 C-1.34 0.67 -0.68 0.34 0 0 Z " fill="#DCDEE2" transform="translate(204,220)"/>
<path d="M0 0 C2 2 2 2 2.25 4.5 C2 7 2 7 0 9 C-3 9.3125 -3 9.3125 -6 9 C-8 6 -8 6 -7.75 3.375 C-7.5025 2.59125 -7.255 1.8075 -7 1 C-4.48718205 -0.25640898 -2.78302919 -0.20872719 0 0 Z M-4 1 C-4.33 2.98 -4.66 4.96 -5 7 C-3.35 6.67 -1.7 6.34 0 6 C0 4.35 0 2.7 0 1 C-1.32 1 -2.64 1 -4 1 Z " fill="#D8DBE0" transform="translate(90,152)"/>
<path d="M0 0 C0.99 0.66 1.98 1.32 3 2 C3.3984375 4.96875 3.3984375 4.96875 3.375 8.5 C3.38273438 9.6653125 3.39046875 10.830625 3.3984375 12.03125 C3.26695312 13.0109375 3.13546875 13.990625 3 15 C2.01 15.66 1.02 16.32 0 17 C0 15.02 0 13.04 0 11 C-1.32 10.67 -2.64 10.34 -4 10 C-3.34 9.67 -2.68 9.34 -2 9 C-2 8.34 -2 7.68 -2 7 C-1.01 7 -0.02 7 1 7 C0.67 4.69 0.34 2.38 0 0 Z " fill="#172834" transform="translate(214,137)"/>
<path d="M0 0 C1.65 0.33 3.3 0.66 5 1 C5 2.32 5 3.64 5 5 C-0.61 5 -6.22 5 -12 5 C-11.67 4.34 -11.34 3.68 -11 3 C-7.7 3 -4.4 3 -1 3 C-0.67 2.01 -0.34 1.02 0 0 Z " fill="#16322F" transform="translate(209,156)"/>
<path d="M0 0 C0.99 0.33 1.98 0.66 3 1 C1.71937515 2.7074998 0.38232443 4.37373596 -1 6 C-1.66 6 -2.32 6 -3 6 C-1.125 1.125 -1.125 1.125 0 0 Z M-7 6 C-5.68 6 -4.36 6 -3 6 C-3 7.65 -3 9.3 -3 11 C-4.65 11.33 -6.3 11.66 -8 12 C-7.67 10.02 -7.34 8.04 -7 6 Z " fill="#CCCFD3" transform="translate(93,147)"/>
<path d="M0 0 C-1.98 2.31 -3.96 4.62 -6 7 C-6.33 6.34 -6.66 5.68 -7 5 C-6.67 4.34 -6.34 3.68 -6 3 C-8.64 3 -11.28 3 -14 3 C-13 1 -13 1 -11.07421875 0.33203125 C-10.28660156 0.16058594 -9.49898438 -0.01085937 -8.6875 -0.1875 C-7.90761719 -0.36667969 -7.12773438 -0.54585937 -6.32421875 -0.73046875 C-4 -1 -4 -1 0 0 Z " fill="#0D121C" transform="translate(105,134)"/>
<path d="M0 0 C2.64 0.33 5.28 0.66 8 1 C7.67 1.66 7.34 2.32 7 3 C6.01 3 5.02 3 4 3 C4.33 5.31 4.66 7.62 5 10 C4.01 9.67 3.02 9.34 2 9 C1.67 7.35 1.34 5.7 1 4 C-0.65 4 -2.3 4 -4 4 C-2.68 3.67 -1.36 3.34 0 3 C0 2.01 0 1.02 0 0 Z " fill="#EBEDF0" transform="translate(176,224)"/>
<path d="M0 0 C1.67542976 0.28604898 3.34385343 0.61781233 5 1 C5.625 2.875 5.625 2.875 6 5 C5.34 5.66 4.68 6.32 4 7 C3.01 7 2.02 7 1 7 C0.67 7.66 0.34 8.32 0 9 C-1 8 -1 8 -1.125 4.5 C-1 1 -1 1 0 0 Z " fill="#D7DADE" transform="translate(105,102)"/>
<path d="M0 0 C1.98 0 3.96 0 6 0 C6.5625 1.9375 6.5625 1.9375 7 4 C6.67 4.33 6.34 4.66 6 5 C6.99 5.66 7.98 6.32 9 7 C5.625 7.1875 5.625 7.1875 2 7 C0 4 0 4 0 0 Z " fill="#818387" transform="translate(82,107)"/>
<path d="M0 0 C5.94 0.33 11.88 0.66 18 1 C18 1.66 18 2.32 18 3 C11.73 3 5.46 3 -1 3 C-0.67 2.01 -0.34 1.02 0 0 Z " fill="#43B452" transform="translate(195,149)"/>
<path d="M0 0 C0.33 0 0.66 0 1 0 C1 5.94 1 11.88 1 18 C2.65 18 4.3 18 6 18 C5.34 18.66 4.68 19.32 4 20 C1.27130593 19.96712417 -1.2966618 19.43602229 -4 19 C-2.68 18.67 -1.36 18.34 0 18 C-0.66 16.02 -1.32 14.04 -2 12 C-1.67 12 -1.34 12 -1 12 C-0.67 8.04 -0.34 4.08 0 0 Z " fill="#04060E" transform="translate(168,109)"/>
<path d="M0 0 C1.32 0.66 2.64 1.32 4 2 C3.67 2.99 3.34 3.98 3 5 C-0.49029418 6.47666292 -4.27436386 6.07164685 -8 6 C-7.67 5.01 -7.34 4.02 -7 3 C-4.69 3 -2.38 3 0 3 C0 2.01 0 1.02 0 0 Z " fill="#0F131F" transform="translate(136,195)"/>
<path d="M0 0 C0.66 0.33 1.32 0.66 2 1 C2 6.94 2 12.88 2 19 C1.67 19 1.34 19 1 19 C0.81824219 17.60974609 0.81824219 17.60974609 0.6328125 16.19140625 C0.46523437 14.99386719 0.29765625 13.79632813 0.125 12.5625 C-0.03742188 11.36753906 -0.19984375 10.17257813 -0.3671875 8.94140625 C-0.57601562 7.97074219 -0.78484375 7.00007812 -1 6 C-1.66 5.67 -2.32 5.34 -3 5 C-1.125 1.125 -1.125 1.125 0 0 Z " fill="#040610" transform="translate(107,135)"/>
<path d="M0 0 C1.32 0 2.64 0 4 0 C5.4783226 2.95664519 5.06032783 5.74229737 5 9 C3.02 9.33 1.04 9.66 -1 10 C-0.34 9.01 0.32 8.02 1 7 C0.68269476 3.36060068 0.68269476 3.36060068 0 0 Z " fill="#F2F4F5" transform="translate(176,116)"/>
<path d="M0 0 C3.96 0 7.92 0 12 0 C10.515 1.485 10.515 1.485 9 3 C8.2730774 6.10839021 8.2730774 6.10839021 8 9 C6 6 6 6 6 3 C3.69 2.67 1.38 2.34 -1 2 C-0.67 1.34 -0.34 0.68 0 0 Z " fill="#0A0F1F" transform="translate(195,112)"/>
<path d="M0 0 C0.66 0.33 1.32 0.66 2 1 C2.125 3.375 2.125 3.375 2 6 C0 8 0 8 -2.5 8.25 C-5 8 -5 8 -7 6 C-6.625 3.375 -6.625 3.375 -6 1 C-5.34 2.32 -4.68 3.64 -4 5 C-3.01 5 -2.02 5 -1 5 C-0.67 3.35 -0.34 1.7 0 0 Z " fill="#E7ECF2" transform="translate(133,149)"/>
<path d="M0 0 C-2.625 3.875 -2.625 3.875 -6 5 C-5.67 5.66 -5.34 6.32 -5 7 C-5.99 7 -6.98 7 -8 7 C-8.33 5.02 -8.66 3.04 -9 1 C-5.64919071 -1.10976881 -3.77897651 -1.0497157 0 0 Z " fill="#B4B5B7" transform="translate(97,216)"/>
<path d="M0 0 C1.125 7.625 1.125 7.625 0 11 C-1.32 11 -2.64 11 -4 11 C-4.3682455 3.51234156 -4.3682455 3.51234156 -2.5625 1 C-1 0 -1 0 0 0 Z " fill="#0A0E1B" transform="translate(95,150)"/>
<path d="M0 0 C0.66 0 1.32 0 2 0 C0.55575365 3.23861303 -1.25772247 5.61969163 -3.625 8.25 C-4.25664063 8.95640625 -4.88828125 9.6628125 -5.5390625 10.390625 C-6.02117187 10.92171875 -6.50328125 11.4528125 -7 12 C-7.66 11.34 -8.32 10.68 -9 10 C-7.5484451 8.32742645 -6.08855591 6.66208242 -4.625 5 C-3.81289062 4.071875 -3.00078125 3.14375 -2.1640625 2.1875 C-1.44992188 1.465625 -0.73578125 0.74375 0 0 Z " fill="#E1E4E8" transform="translate(103,136)"/>
<path d="M0 0 C5.05296103 1.15496252 9.01074907 4.85215436 13 8 C12.01 8.495 12.01 8.495 11 9 C8.55667274 7.92481882 6.23245477 6.80191434 3.875 5.5625 C3.21628906 5.22412109 2.55757812 4.88574219 1.87890625 4.53710938 C0.24893453 3.69850074 -1.37601909 2.85015189 -3 2 C-2.01 1.34 -1.02 0.68 0 0 Z " fill="#C4C7CE" transform="translate(225,223)"/>
<path d="M0 0 C0.99 0.66 1.98 1.32 3 2 C2.07347299 3.17539996 1.13336613 4.34010577 0.1875 5.5 C-0.33457031 6.1496875 -0.85664062 6.799375 -1.39453125 7.46875 C-3 9 -3 9 -6 9 C-4.68775452 5.06326356 -3.08089673 2.77280706 0 0 Z " fill="#D9DBDF" transform="translate(83,225)"/>
<path d="M0 0 C2.0625 0.4375 2.0625 0.4375 4 1 C4.33 2.32 4.66 3.64 5 5 C3.35 5.33 1.7 5.66 0 6 C-0.38218767 4.34385343 -0.71395102 2.67542976 -1 1 C-0.67 0.67 -0.34 0.34 0 0 Z " fill="#161924" transform="translate(108,127)"/>
<path d="M0 0 C0.66 0.33 1.32 0.66 2 1 C2 1.66 2 2.32 2 3 C3.97536745 2.65213292 3.97536745 2.65213292 6 2 C6.33 1.34 6.66 0.68 7 0 C7.99 0.33 8.98 0.66 10 1 C10 1.66 10 2.32 10 3 C11.65 3 13.3 3 15 3 C15 3.33 15 3.66 15 4 C10.05 4 5.1 4 0 4 C-0.33 3.34 -0.66 2.68 -1 2 C-0.67 1.34 -0.34 0.68 0 0 Z " fill="#080D15" transform="translate(201,124)"/>
<path d="M0 0 C0 0.66 0 1.32 0 2 C-3.50331713 5.40027839 -6.15833214 6.54961229 -11 7 C-11.33 6.34 -11.66 5.68 -12 5 C-10.37750059 4.16180842 -8.75191503 3.3295884 -7.125 2.5 C-6.22007813 2.0359375 -5.31515625 1.571875 -4.3828125 1.09375 C-2 0 -2 0 0 0 Z " fill="#0C0F19" transform="translate(70,225)"/>
<path d="M0 0 C1.051875 0.433125 1.051875 0.433125 2.125 0.875 C5.05452503 2.02133588 8.00921653 3.02625654 11 4 C11 4.33 11 4.66 11 5 C3.54961832 6.34351145 3.54961832 6.34351145 1 4.75 C0 3 0 3 0 0 Z " fill="#0C0E18" transform="translate(137,185)"/>
<path d="M0 0 C0.66 1.32 1.32 2.64 2 4 C4.64 4 7.28 4 10 4 C10 4.33 10 4.66 10 5 C6.92382812 5.29296875 6.92382812 5.29296875 3.84765625 5.5859375 C3.23792969 5.72257812 2.62820312 5.85921875 2 6 C1.67 6.66 1.34 7.32 1 8 C0.01 8 -0.98 8 -2 8 C-1.125 2.25 -1.125 2.25 0 0 Z " fill="#D5D7DA" transform="translate(153,119)"/>
<path d="M0 0 C2.875 -0.1875 2.875 -0.1875 6 0 C8 3 8 3 8 6 C6.68 6.33 5.36 6.66 4 7 C4 5.68 4 4.36 4 3 C2.35 2.67 0.7 2.34 -1 2 C-0.67 1.34 -0.34 0.68 0 0 Z " fill="#D1D4D7" transform="translate(84,105)"/>
<path d="M0 0 C-1 2 -1 2 -3.8125 3.125 C-7 4 -7 4 -11 4 C-11 2 -11 2 -10 0.3125 C-6.70980593 -1.84668986 -3.77762382 -0.68121085 0 0 Z " fill="#131823" transform="translate(101,206)"/>
<path d="M0 0 C2.475 0.495 2.475 0.495 5 1 C4.67 2.65 4.34 4.3 4 6 C2.68 6 1.36 6 0 6 C0 4.02 0 2.04 0 0 Z " fill="#151822" transform="translate(173,118)"/>
<path d="M0 0 C0.33 0.66 0.66 1.32 1 2 C3.09508223 2.39085466 3.09508223 2.39085466 5.5 2.5 C7.96875 2.65625 7.96875 2.65625 10 3 C10.33 3.66 10.66 4.32 11 5 C7.96663814 5.22893297 5.02534949 5.36475845 2 5 C-0.0625 3 -0.0625 3 -1 1 C-0.67 0.67 -0.34 0.34 0 0 Z " fill="#E4E7E9" transform="translate(91,219)"/>
<path d="M0 0 C0.99 0.33 1.98 0.66 3 1 C3.94921875 3.06640625 3.94921875 3.06640625 4.6875 5.5625 C4.93886719 6.38878906 5.19023438 7.21507812 5.44921875 8.06640625 C5.63097656 8.70449219 5.81273438 9.34257812 6 10 C1.77202073 6.91709845 1.77202073 6.91709845 0 5 C-0.375 2.1875 -0.375 2.1875 0 0 Z " fill="#101420" transform="translate(115,130)"/>
<path d="M0 0 C0.33 0.99 0.66 1.98 1 3 C1.99 3 2.98 3 4 3 C4.33 4.65 4.66 6.3 5 8 C3.68 8 2.36 8 1 8 C0.67 7.01 0.34 6.02 0 5 C-0.99 5.495 -0.99 5.495 -2 6 C-1.34 4.02 -0.68 2.04 0 0 Z " fill="#74757B" transform="translate(156,113)"/>
<path d="M0 0 C-1.65 1.65 -3.3 3.3 -5 5 C-5.66 4.67 -6.32 4.34 -7 4 C-7.625 1.9375 -7.625 1.9375 -8 0 C-4.94736336 -0.98120464 -3.05263664 -0.98120464 0 0 Z " fill="#1F222A" transform="translate(122,211)"/>
<path d="M0 0 C1.65 0.99 3.3 1.98 5 3 C4.67 3.66 4.34 4.32 4 5 C1.69 4.67 -0.62 4.34 -3 4 C-3 3.01 -3 2.02 -3 1 C-2.01 1.33 -1.02 1.66 0 2 C0 1.34 0 0.68 0 0 Z " fill="#111724" transform="translate(196,204)"/>
<path d="M0 0 C3.16115776 1.36983503 3.9927092 1.9890638 6 5 C3.36 5 0.72 5 -2 5 C-1.34 3.35 -0.68 1.7 0 0 Z " fill="#0B1B1D" transform="translate(186,156)"/>
<path d="M0 0 C0.33 1.32 0.66 2.64 1 4 C2.32 4.33 3.64 4.66 5 5 C5.33 6.32 5.66 7.64 6 9 C5.34 9 4.68 9 4 9 C3.67 8.34 3.34 7.68 3 7 C-0.02934491 6.34227572 -0.02934491 6.34227572 -3 6 C-2.67 5.34 -2.34 4.68 -2 4 C-1.34 4 -0.68 4 0 4 C0 2.68 0 1.36 0 0 Z " fill="#E0E3E7" transform="translate(109,151)"/>
<path d="M0 0 C1.12894876 0.93274109 2.25300876 1.87140122 3.375 2.8125 C4.00148438 3.33457031 4.62796875 3.85664063 5.2734375 4.39453125 C7 6 7 6 9 9 C6 9 6 9 4.39453125 7.79296875 C3.87246094 7.26316406 3.35039063 6.73335937 2.8125 6.1875 C2.01779297 5.40439453 2.01779297 5.40439453 1.20703125 4.60546875 C0 3 0 3 0 0 Z " fill="#E7EBEE" transform="translate(113,133)"/>
<path d="M0 0 C1.32 0.66 2.64 1.32 4 2 C2.38007835 2.86375896 0.75388139 3.71575854 -0.875 4.5625 C-2.23238281 5.27599609 -2.23238281 5.27599609 -3.6171875 6.00390625 C-4.40351562 6.33261719 -5.18984375 6.66132813 -6 7 C-6.66 6.67 -7.32 6.34 -8 6 C-5.36 4.02 -2.72 2.04 0 0 Z " fill="#AFB3BB" transform="translate(62,225)"/>
<path d="M0 0 C0.66 0.33 1.32 0.66 2 1 C0.515 3.475 0.515 3.475 -1 6 C-2.65 5.67 -4.3 5.34 -6 5 C-2.25 1.125 -2.25 1.125 0 0 Z " fill="#12151F" transform="translate(99,215)"/>
<path d="M0 0 C4.60853797 0.72008406 8.67237409 2.31295939 13 4 C8.84228506 5.31538327 6.1120703 4.34433068 2 3 C1.67 3.66 1.34 4.32 1 5 C0.67 3.35 0.34 1.7 0 0 Z " fill="#D1EDD4" transform="translate(173,139)"/>
<path d="M0 0 C1.32 0.33 2.64 0.66 4 1 C1.61042731 4.24299151 -0.2047869 6.50902342 -4 8 C-2.87548273 5.0280615 -1.77706209 2.66559313 0 0 Z " fill="#0F151E" transform="translate(124,211)"/>
<path d="M0 0 C5.95703125 -0.29296875 5.95703125 -0.29296875 8 0 C8.99 0.99 9.98 1.98 11 3 C7.37 2.67 3.74 2.34 0 2 C0 1.34 0 0.68 0 0 Z " fill="#141822" transform="translate(176,202)"/>
<path d="M0 0 C0.66 0.33 1.32 0.66 2 1 C2.125 3.375 2.125 3.375 2 6 C0 8 0 8 -2.625 8.125 C-3.40875 8.08375 -4.1925 8.0425 -5 8 C-5 7.34 -5 6.68 -5 6 C-3.68 5.67 -2.36 5.34 -1 5 C-0.67 3.35 -0.34 1.7 0 0 Z " fill="#E0E2E8" transform="translate(90,153)"/>
<path d="M0 0 C1.98 0.66 3.96 1.32 6 2 C6 2.99 6 3.98 6 5 C7.32 5 8.64 5 10 5 C9.67 5.99 9.34 6.98 9 8 C4.7257442 6.4169423 2.73468206 3.49431596 0 0 Z " fill="#101420" transform="translate(121,140)"/>
<path d="M0 0 C0.99 0.66 1.98 1.32 3 2 C2.34 3.32 1.68 4.64 1 6 C-1.31 5.67 -3.62 5.34 -6 5 C-6 4.67 -6 4.34 -6 4 C-4.35 3.67 -2.7 3.34 -1 3 C-0.67 2.01 -0.34 1.02 0 0 Z " fill="#101520" transform="translate(102,125)"/>
<path d="M0 0 C-3.53411321 2.12046792 -6.94393835 2.53199289 -11 3 C-11.33 2.01 -11.66 1.02 -12 0 C-7.66726186 -0.92844389 -4.33273814 -0.92844389 0 0 Z " fill="#BEC1C7" transform="translate(126,127)"/>
<path d="M0 0 C0.66 0.66 1.32 1.32 2 2 C2.78375 1.835 3.5675 1.67 4.375 1.5 C7.41320245 0.92129477 8.43957492 1.38788051 11 3 C10 4 10 4 7.71484375 4.09765625 C6.34005859 4.08025391 6.34005859 4.08025391 4.9375 4.0625 C4.01839844 4.05347656 3.09929687 4.04445313 2.15234375 4.03515625 C1.44207031 4.02355469 0.73179687 4.01195313 0 4 C0 2.68 0 1.36 0 0 Z " fill="#D1D3D8" transform="translate(169,123)"/>
<path d="M0 0 C-2 2 -2 2 -4.1640625 2.1953125 C-5.38222656 2.16050781 -5.38222656 2.16050781 -6.625 2.125 C-7.44226563 2.10695312 -8.25953125 2.08890625 -9.1015625 2.0703125 C-9.72804687 2.04710937 -10.35453125 2.02390625 -11 2 C-10 0 -10 0 -8.3125 -0.6875 C-5.37519398 -1.08443325 -2.88840266 -0.59080963 0 0 Z " fill="#D6DADE" transform="translate(201,222)"/>
<path d="M0 0 C0 3 0 3 -2 6 C-3.65 5.67 -5.3 5.34 -7 5 C-7 4.01 -7 3.02 -7 2 C-4.69 1.34 -2.38 0.68 0 0 Z " fill="#0B101E" transform="translate(114,162)"/>
<path d="M0 0 C0.66 0 1.32 0 2 0 C2 1.98 2 3.96 2 6 C0.35 6 -1.3 6 -3 6 C-1.125 1.125 -1.125 1.125 0 0 Z " fill="#101521" transform="translate(215,116)"/>
<path d="M0 0 C0.66 0 1.32 0 2 0 C2 2.97 2 5.94 2 9 C1.01 8.67 0.02 8.34 -1 8 C-1.125 2.25 -1.125 2.25 0 0 Z " fill="#0C0F16" transform="translate(106,116)"/>
<path d="M0 0 C2.29013653 3.4352048 2.17842973 4.985331 2 9 C0.68 8.34 -0.64 7.68 -2 7 C-1.34 4.69 -0.68 2.38 0 0 Z " fill="#0D131E" transform="translate(93,105)"/>
<path d="M0 0 C1.45922693 0.11409593 2.91740598 0.24165544 4.375 0.375 C5.59316406 0.47941406 5.59316406 0.47941406 6.8359375 0.5859375 C9 1 9 1 11 3 C8.03 3 5.06 3 2 3 C2 2.34 2 1.68 2 1 C1.34 0.67 0.68 0.34 0 0 Z " fill="#090E1A" transform="translate(180,212)"/>
<path d="M0 0 C1.32 0.66 2.64 1.32 4 2 C2 4 2 4 -0.1640625 4.1953125 C-1.38222656 4.16050781 -1.38222656 4.16050781 -2.625 4.125 C-3.44226563 4.10695312 -4.25953125 4.08890625 -5.1015625 4.0703125 C-5.72804687 4.04710937 -6.35453125 4.02390625 -7 4 C-5 2 -5 2 -2.375 1.875 C-1.59125 1.91625 -0.8075 1.9575 0 2 C0 1.34 0 0.68 0 0 Z " fill="#1D1E28" transform="translate(148,188)"/>
<path d="M0 0 C0.99 0.99 1.98 1.98 3 3 C-0.63 3 -4.26 3 -8 3 C-7.67 2.34 -7.34 1.68 -7 1 C-3.625 0.1875 -3.625 0.1875 0 0 Z " fill="#3EAA4B" transform="translate(192,161)"/>
<path d="M0 0 C1.98 0.495 1.98 0.495 4 1 C3.67 2.32 3.34 3.64 3 5 C1.68 4.67 0.36 4.34 -1 4 C-0.67 2.68 -0.34 1.36 0 0 Z " fill="#171A21" transform="translate(129,150)"/>
<path d="M0 0 C0.66 0.33 1.32 0.66 2 1 C2 4 2 4 0 7 C-0.66 7 -1.32 7 -2 7 C-2.33 6.01 -2.66 5.02 -3 4 C-1.5625 1.8125 -1.5625 1.8125 0 0 Z " fill="#232734" transform="translate(90,135)"/>
<path d="M0 0 C1.98 0.495 1.98 0.495 4 1 C3.67 2.32 3.34 3.64 3 5 C1.68 4.67 0.36 4.34 -1 4 C-0.67 2.68 -0.34 1.36 0 0 Z " fill="#20212A" transform="translate(83,133)"/>
<path d="M0 0 C1.98 0.495 1.98 0.495 4 1 C3.67 2.32 3.34 3.64 3 5 C1.68 4.67 0.36 4.34 -1 4 C-0.67 2.68 -0.34 1.36 0 0 Z " fill="#1A1C25" transform="translate(130,122)"/>
<path d="M0 0 C0.99 0 1.98 0 3 0 C1.92598892 2.91517292 1.22189824 4.77810176 -1 7 C-1.66 6.67 -2.32 6.34 -3 6 C-1.125 1.125 -1.125 1.125 0 0 Z " fill="#DCDDE0" transform="translate(120,212)"/>
<path d="M0 0 C2.475 0.99 2.475 0.99 5 2 C4.42655063 4.86724686 4.1385485 5.8614515 2 8 C0.74335022 5.09399739 0 3.20395416 0 0 Z " fill="#DCDEE1" transform="translate(103,123)"/>
<path d="M0 0 C2.9375 0.375 2.9375 0.375 6 1 C6.33 1.66 6.66 2.32 7 3 C5.02 3 3.04 3 1 3 C1 3.66 1 4.32 1 5 C0.34 5 -0.32 5 -1 5 C-0.67 3.35 -0.34 1.7 0 0 Z " fill="#101521" transform="translate(55,86)"/>
<path d="M0 0 C0.66 0.33 1.32 0.66 2 1 C4.3329866 1.04022391 6.66706666 1.04320247 9 1 C9 1.33 9 1.66 9 2 C8.06027344 2.19916016 8.06027344 2.19916016 7.1015625 2.40234375 C5.87566406 2.66724609 5.87566406 2.66724609 4.625 2.9375 C3.81289062 3.11152344 3.00078125 3.28554687 2.1640625 3.46484375 C-0.029463 3.92330693 -0.029463 3.92330693 -2 5 C-2 3.68 -2 2.36 -2 1 C-1.34 0.67 -0.68 0.34 0 0 Z " fill="#0F1322" transform="translate(116,229)"/>
<path d="M0 0 C1.875 0.3125 1.875 0.3125 4 1 C4.66 1.99 5.32 2.98 6 4 C5.01 4.33 4.02 4.66 3 5 C2.01 4.34 1.02 3.68 0 3 C0 2.01 0 1.02 0 0 Z " fill="#E2FBE8" transform="translate(195,161)"/>
<path d="M0 0 C3.16115776 1.36983503 3.9927092 1.9890638 6 5 C5.01 5.33 4.02 5.66 3 6 C1.68 4.35 0.36 2.7 -1 1 C-0.67 0.67 -0.34 0.34 0 0 Z " fill="#C6CACE" transform="translate(121,142)"/>
<path d="M0 0 C2.45484649 2.13464912 3.68134222 3.70720291 4 7 C3.34 7.66 2.68 8.32 2 9 C0.4375 6.1875 0.4375 6.1875 -1 3 C-0.67 2.01 -0.34 1.02 0 0 Z " fill="#0A0F1A" transform="translate(163,112)"/>
<path d="M0 0 C1.98 0.495 1.98 0.495 4 1 C3.34 2.32 2.68 3.64 2 5 C1.01 4.67 0.02 4.34 -1 4 C-0.67 2.68 -0.34 1.36 0 0 Z " fill="#14141B" transform="translate(107,104)"/>
<path d="M0 0 C0.94875 0.350625 1.8975 0.70125 2.875 1.0625 C2.215 1.7225 1.555 2.3825 0.875 3.0625 C-1.6875 2.8125 -1.6875 2.8125 -4.125 2.0625 C-4.455 1.4025 -4.785 0.7425 -5.125 0.0625 C-3.125 -0.9375 -3.125 -0.9375 0 0 Z " fill="#F5F7F8" transform="translate(215.125,216.9375)"/>
<path d="M0 0 C1.32 0 2.64 0 4 0 C3.67 1.65 3.34 3.3 3 5 C2.01 4.67 1.02 4.34 0 4 C0 2.68 0 1.36 0 0 Z " fill="#1A1C22" transform="translate(108,157)"/>
<path d="M0 0 C0.99 0.33 1.98 0.66 3 1 C3 2.32 3 3.64 3 5 C1.68 5 0.36 5 -1 5 C-0.67 3.35 -0.34 1.7 0 0 Z " fill="#16171F" transform="translate(86,154)"/>
<path d="M0 0 C0.33 0 0.66 0 1 0 C1.12375 0.94875 1.2475 1.8975 1.375 2.875 C1.71687177 6.08667191 1.71687177 6.08667191 4 8 C3.34 8.66 2.68 9.32 2 10 C0.68 9.34 -0.64 8.68 -2 8 C-1.34 5.36 -0.68 2.72 0 0 Z " fill="#BEBFC5" transform="translate(110,119)"/>
<path d="M0 0 C0.99 0.66 1.98 1.32 3 2 C2.34 2 1.68 2 1 2 C0.67 2.99 0.34 3.98 0 5 C-1.32 5 -2.64 5 -4 5 C-3 2 -3 2 0 0 Z " fill="#DCE0E4" transform="translate(207,122)"/>
<path d="M0 0 C0.33 0.99 0.66 1.98 1 3 C0.67 3.66 0.34 4.32 0 5 C2.31 5 4.62 5 7 5 C7 5.33 7 5.66 7 6 C4.36 6 1.72 6 -1 6 C-1.625 4.125 -1.625 4.125 -2 2 C-1.34 1.34 -0.68 0.68 0 0 Z " fill="#F9F9FB" transform="translate(156,117)"/>
<path d="M0 0 C0.99 0 1.98 0 3 0 C2.75 2.375 2.75 2.375 2 5 C-0.0625 6.3125 -0.0625 6.3125 -2 7 C-1.67 6.01 -1.34 5.02 -1 4 C-0.34 4 0.32 4 1 4 C0.67 2.68 0.34 1.36 0 0 Z " fill="#F6F7F9" transform="translate(86,219)"/>
<path d="M0 0 C2.97 0.33 5.94 0.66 9 1 C5.5647952 3.29013653 4.014669 3.17842973 0 3 C0 2.01 0 1.02 0 0 Z " fill="#03040F" transform="translate(139,197)"/>
<path d="M0 0 C0.66 0 1.32 0 2 0 C1.67 1.65 1.34 3.3 1 5 C-0.32 5 -1.64 5 -3 5 C-1.125 1.125 -1.125 1.125 0 0 Z " fill="#0E111B" transform="translate(152,185)"/>
<path d="M0 0 C2.475 0.495 2.475 0.495 5 1 C5.33 2.32 5.66 3.64 6 5 C5.01 5 4.02 5 3 5 C2.87625 4.360625 2.7525 3.72125 2.625 3.0625 C2.315625 2.0415625 2.315625 2.0415625 2 1 C1.34 0.67 0.68 0.34 0 0 Z " fill="#F3F3F5" transform="translate(195,115)"/>
<path d="M0 0 C0.33 0 0.66 0 1 0 C1.05399736 1.45792884 1.09279177 2.91642712 1.125 4.375 C1.14820313 5.18710938 1.17140625 5.99921875 1.1953125 6.8359375 C1 9 1 9 -1 11 C-1.33 9.02 -1.66 7.04 -2 5 C-1.34 5 -0.68 5 0 5 C0 3.35 0 1.7 0 0 Z " fill="#1D212A" transform="translate(182,111)"/>
<path d="M0 0 C0.33 0 0.66 0 1 0 C1.26218749 3.14624993 1.24754367 4.61837017 -0.5 7.3125 C-1.2425 8.1478125 -1.2425 8.1478125 -2 9 C-2.125 5.625 -2.125 5.625 -2 2 C-1.34 1.34 -0.68 0.68 0 0 Z " fill="#0A0D16" transform="translate(112,109)"/>
</svg>
